<?xml version="1.0" encoding="UTF-8" standalone="no"?>
<!DOCTYPE svg PUBLIC "-//W3C//DTD SVG 1.1//EN" "http://www.w3.org/Graphics/SVG/1.1/DTD/svg11.dtd">
<svg xmlns="http://www.w3.org/2000/svg" version="1.1" viewBox="0.00 0.00 1123.00 380.00">
<g stroke-width="2.00" fill="none" stroke-linecap="butt">
<path stroke="#85afc5" vector-effect="non-scaling-stroke" d="
  M 74.38 36.64
  Q 81.54 40.92 88.35 44.66
  Q 93.16 47.31 103.07 54.82
  Q 108.81 59.17 114.91 64.75
  Q 121.93 71.17 125.79 75.73
  Q 130.80 81.63 136.44 89.42
  Q 139.14 93.15 140.97 97.12
  C 142.98 101.52 145.63 106.96 149.28 110.29
  Q 153.85 114.46 157.04 120.53
  A 2.28 2.28 0.0 0 1 156.34 123.44
  Q 144.47 131.84 141.27 147.00
  C 140.92 148.63 139.86 149.70 138.09 149.34
  C 129.14 147.53 121.24 150.67 113.32 154.78"
/>
<path stroke="#85afc5" vector-effect="non-scaling-stroke" d="
  M 103.36 143.74
  Q 102.32 136.89 98.73 137.04"
/>
<path stroke="#85afc5" vector-effect="non-scaling-stroke" d="
  M 112.69 74.77
  Q 102.40 63.68 91.74 56.76
  Q 76.65 46.97 72.63 44.86
  Q 43.98 29.75 12.79 20.95
  Q 12.70 20.93 9.36 19.61
  Q 6.41 18.46 3.39 19.73"
/>
<path stroke="#85afc5" vector-effect="non-scaling-stroke" d="
  M 162.48 117.73
  Q 165.04 119.43 166.76 118.79
  Q 170.97 117.21 176.17 117.24
  Q 188.22 117.30 197.49 124.19
  C 199.62 125.78 201.79 126.04 202.72 123.03
  Q 204.47 117.34 204.71 111.49
  C 205.28 97.78 193.83 88.05 181.75 84.74
  Q 178.45 83.84 168.88 85.24"
/>
<path stroke="#85afc5" vector-effect="non-scaling-stroke" d="
  M 94.96 136.74
  Q 96.03 143.09 99.37 150.14
  Q 101.71 155.09 105.34 157.10"
/>
<path stroke="#85afc5" vector-effect="non-scaling-stroke" d="
  M 108.43 159.90
  Q 97.59 171.36 98.03 187.21
  Q 98.08 188.93 97.64 189.71
  Q 96.75 191.28 94.77 190.54
  Q 87.34 187.77 81.27 180.90"
/>
<path stroke="#85afc5" vector-effect="non-scaling-stroke" d="
  M 667.15 331.51
  Q 667.38 330.84 667.69 331.28"
/>
<path stroke="#7e9eb0" vector-effect="non-scaling-stroke" d="
  M 667.69 331.28
  Q 686.12 341.89 707.26 345.04
  C 729.90 348.40 752.63 348.44 774.95 344.25
  Q 782.95 342.74 789.76 340.12
  Q 795.15 338.05 800.86 335.44
  Q 803.20 334.36 805.49 332.89
  Q 807.58 331.54 809.55 330.30
  Q 819.94 323.77 829.34 311.49
  Q 839.43 298.31 844.32 281.90
  Q 845.03 279.50 845.90 277.11
  Q 846.81 274.60 847.05 272.06
  C 847.32 269.13 848.50 266.32 848.89 263.34
  Q 849.55 258.22 850.27 253.07
  C 851.38 245.11 851.69 237.33 852.24 229.46
  Q 852.67 223.31 852.70 216.04
  Q 852.94 157.22 852.85 84.25
  Q 852.83 65.69 852.91 44.22
  A 1.46 1.44 2.8 0 0 851.58 42.77
  Q 847.51 42.42 843.33 42.39
  C 841.21 42.38 839.21 41.98 837.10 41.70
  Q 834.80 41.39 832.40 41.34
  Q 821.88 41.17 811.18 40.84"
/>
<path stroke="#106488" vector-effect="non-scaling-stroke" d="
  M 672.44 40.81
  Q 679.08 41.79 689.74 42.81
  Q 692.35 43.06 694.10 42.25"
/>
<path stroke="#7e9eb0" vector-effect="non-scaling-stroke" d="
  M 696.46 43.33
  Q 696.50 127.24 696.62 211.25
  Q 696.64 229.29 698.88 245.46
  C 700.86 259.77 705.87 275.36 720.52 280.59
  Q 728.66 283.49 739.49 283.42
  Q 742.04 283.40 744.33 282.97
  Q 746.54 282.56 748.76 282.46
  Q 752.42 282.30 755.58 281.21
  Q 760.75 279.43 764.29 275.67"
/>
<path stroke="#106488" vector-effect="non-scaling-stroke" d="
  M 667.69 331.28
  Q 664.10 327.35 659.98 326.29"
/>
<path stroke="#7e9eb0" vector-effect="non-scaling-stroke" d="
  M 970.17 342.11
  C 976.58 343.86 983.34 343.91 989.73 344.69
  C 997.96 345.70 1005.54 345.89 1013.54 345.32
  Q 1026.95 344.36 1040.50 342.58
  Q 1042.20 342.36 1042.20 340.64
  Q 1042.18 239.70 1042.20 126.73
  Q 1042.20 118.68 1041.96 111.00
  Q 1041.92 109.71 1042.05 109.15
  Q 1042.42 107.50 1044.12 107.50
  L 1110.76 107.43
  Q 1112.64 107.43 1112.78 105.56
  C 1113.32 97.98 1114.77 90.43 1115.12 82.92
  Q 1115.96 64.39 1113.04 46.19
  C 1112.62 43.59 1112.88 42.16 1109.75 42.39
  Q 1089.78 43.81 1066.51 42.68"
/>
<path stroke="#7e9eb0" vector-effect="non-scaling-stroke" d="
  M 968.15 109.59
  Q 969.12 108.51 967.52 107.80
  Q 966.90 107.52 965.91 107.52
  Q 932.83 107.46 898.84 107.49"
/>
<path stroke="#106488" vector-effect="non-scaling-stroke" d="
  M 570.27 42.30
  Q 573.67 43.38 577.13 43.16
  Q 577.22 43.16 578.05 43.37
  Q 578.26 43.43 578.57 43.44"
/>
<path stroke="#7e9eb0" vector-effect="non-scaling-stroke" d="
  M 578.57 43.44
  Q 580.94 57.66 581.13 61.38
  Q 581.83 74.59 581.00 88.74
  C 580.68 94.15 579.23 100.14 578.79 105.79
  Q 578.63 107.78 576.63 107.72
  C 555.33 107.08 533.60 107.50 512.75 107.42
  Q 511.15 107.42 509.55 107.88
  A 1.92 1.92 0.0 0 0 508.17 109.85
  Q 508.56 116.19 508.54 123.12
  Q 508.45 169.38 508.31 219.19
  C 508.28 231.78 508.75 243.73 508.62 256.01
  Q 508.52 266.06 508.58 276.00
  C 508.70 292.32 508.21 308.30 508.34 324.41
  Q 508.41 333.10 508.42 341.25
  A 1.21 1.21 0.0 0 1 507.36 342.45
  L 497.95 343.60"
/>
<path stroke="#106488" vector-effect="non-scaling-stroke" d="
  M 497.95 343.60
  Q 494.49 343.25 490.63 344.28"
/>
<path stroke="#7e9eb0" vector-effect="non-scaling-stroke" d="
  M 490.63 344.28
  Q 473.47 346.84 455.66 344.51
  Q 452.17 344.06 446.54 343.55
  Q 442.03 343.15 437.43 342.27"
/>
<path stroke="#7e9eb0" vector-effect="non-scaling-stroke" d="
  M 435.22 109.76
  Q 435.84 108.95 435.24 108.16
  A 1.23 1.22 71.3 0 0 434.26 107.67
  L 365.40 107.32"
/>
<path stroke="#85afc5" vector-effect="non-scaling-stroke" d="
  M 578.47 42.96
  Q 578.24 43.58 578.57 43.44"
/>
<path stroke="#85afc5" vector-effect="non-scaling-stroke" d="
  M 490.63 344.28
  L 497.95 343.60"
/>
<path stroke="#85afc5" vector-effect="non-scaling-stroke" d="
  M 163.59 179.21
  Q 172.35 169.54 184.51 165.70
  C 189.73 164.05 194.49 164.79 199.75 165.39
  C 202.02 165.65 204.39 165.33 204.87 162.56
  Q 206.26 154.59 205.85 148.15
  Q 205.84 148.05 205.83 148.15
  Q 205.73 149.53 205.71 150.92
  Q 205.70 151.34 205.55 150.95
  Q 205.52 150.86 205.53 150.76
  C 206.08 145.00 203.45 140.21 199.97 135.66
  Q 196.30 130.86 190.94 127.98
  Q 189.33 127.12 186.12 126.36
  Q 183.63 125.77 181.23 124.85"
/>
<path stroke="#85afc5" vector-effect="non-scaling-stroke" d="
  M 211.11 144.15
  Q 212.74 147.11 212.62 151.67
  A 0.81 0.81 0.0 0 0 213.69 152.46
  Q 217.10 151.30 220.24 149.80
  C 226.90 146.64 234.86 146.52 242.12 148.06
  Q 242.59 148.17 243.02 147.94
  Q 244.58 147.10 244.59 144.94
  C 244.61 140.91 244.99 136.57 244.15 132.71
  Q 241.78 121.85 232.47 115.58
  Q 226.42 111.50 217.74 110.40"
/>
<path stroke="#85afc5" vector-effect="non-scaling-stroke" d="
  M 160.33 177.61
  Q 159.70 175.49 157.74 175.40"
/>
<path stroke="#85afc5" vector-effect="non-scaling-stroke" d="
  M 208.33 125.55
  Q 209.79 124.84 209.26 122.93"
/>
<path stroke="#85afc5" vector-effect="non-scaling-stroke" d="
  M 124.29 244.19
  Q 118.04 237.33 117.37 228.00
  C 117.07 223.66 117.51 218.50 113.67 215.68
  Q 110.19 213.12 106.88 210.07
  C 103.30 206.77 100.77 202.02 97.67 197.81"
/>
<path stroke="#85afc5" vector-effect="non-scaling-stroke" d="
  M 109.69 203.40
  L 110.23 203.53
  Q 110.72 203.64 111.06 204.01
  C 112.50 205.53 117.21 212.22 119.44 207.93
  Q 126.34 194.61 138.60 189.53
  Q 140.04 188.93 141.43 188.50
  Q 142.97 188.02 144.45 187.47
  Q 146.91 186.54 149.12 186.48
  Q 153.77 186.35 158.12 186.32
  Q 162.26 186.29 159.08 183.64
  C 156.40 181.41 152.98 180.27 150.55 177.72
  C 146.84 173.83 143.37 169.06 142.28 163.75
  C 141.87 161.70 140.85 157.23 138.49 156.74
  Q 133.05 155.60 126.97 157.57"
/>
<path stroke="#85afc5" vector-effect="non-scaling-stroke" d="
  M 125.30 246.60
  L 118.07 246.08
  Q 117.57 246.04 117.12 246.28
  Q 116.04 246.85 114.65 247.03
  Q 114.17 247.09 113.86 247.47
  Q 113.54 247.87 113.03 248.04
  Q 110.25 248.96 107.80 250.12
  Q 105.29 251.30 102.74 250.49
  Q 94.67 247.96 87.17 241.33"
/>
<path stroke="#85afc5" vector-effect="non-scaling-stroke" d="
  M 228.77 212.36
  Q 234.88 212.96 238.50 212.58
  Q 242.31 212.18 246.81 209.91
  Q 248.08 209.27 249.12 208.39
  Q 250.20 207.46 251.49 206.82
  Q 252.28 206.42 252.81 205.68
  C 253.65 204.47 254.93 204.08 255.80 202.77
  Q 257.81 199.74 259.36 196.82
  Q 260.66 194.37 261.41 191.70
  Q 262.31 188.52 262.80 185.34
  Q 263.32 182.00 262.64 179.40
  Q 261.58 175.41 259.85 171.14
  C 258.32 167.35 256.20 163.84 252.84 161.43
  Q 246.13 156.62 238.15 155.29
  Q 236.58 155.03 233.83 155.21
  Q 231.66 155.34 229.47 155.20"
/>
<path stroke="#85afc5" vector-effect="non-scaling-stroke" d="
  M 226.44 191.31
  Q 226.67 191.32 226.82 191.29
  Q 227.19 191.23 227.09 190.87
  Q 223.10 176.70 211.35 170.25
  C 210.18 169.60 209.62 168.43 209.38 167.16"
/>
<path stroke="#85afc5" vector-effect="non-scaling-stroke" d="
  M 173.99 224.48
  Q 184.67 231.49 196.63 230.45
  Q 199.24 230.22 201.73 229.21
  Q 205.00 227.89 206.95 226.28
  Q 211.02 222.91 214.74 218.37
  Q 215.05 217.99 215.19 217.53
  Q 215.41 216.80 216.13 216.42
  A 1.42 1.39 89.5 0 0 216.72 215.81
  Q 221.15 207.03 220.66 197.10
  Q 220.61 196.14 220.32 195.28
  Q 220.06 194.53 220.10 193.70
  Q 220.15 192.59 219.75 191.35
  Q 218.57 187.74 217.05 185.41
  Q 211.05 176.21 197.88 172.79
  C 194.16 171.83 190.68 172.80 186.92 172.31"
/>
<path stroke="#85afc5" vector-effect="non-scaling-stroke" d="
  M 133.49 244.42
  Q 142.29 249.87 151.37 250.75
  Q 153.90 250.99 156.83 250.33
  Q 163.31 248.87 166.78 246.81
  Q 170.04 244.88 173.36 241.91
  Q 174.73 240.69 175.78 239.22
  Q 176.76 237.85 178.03 236.76
  A 1.16 1.16 0.0 0 0 177.82 234.86
  C 168.08 229.67 161.22 223.10 157.90 212.53
  C 156.13 206.90 156.33 200.55 156.28 194.67
  A 1.32 1.32 0.0 0 0 154.69 193.39
  L 145.43 195.34"
/>
<path stroke="#85afc5" vector-effect="non-scaling-stroke" d="
  M 262.92 208.64
  Q 270.58 214.14 271.89 216.60
  Q 276.06 224.46 276.62 226.75
  Q 277.42 229.99 276.61 238.00
  Q 276.43 239.81 275.84 241.32
  Q 275.18 243.02 274.71 244.80
  Q 274.09 247.18 272.38 249.50
  Q 269.28 253.70 267.47 255.36
  Q 265.68 256.99 263.26 256.89
  Q 258.38 256.68 253.62 255.61
  Q 251.49 255.13 248.58 255.90"
/>
<path stroke="#85afc5" vector-effect="non-scaling-stroke" d="
  M 244.65 238.57
  Q 242.90 231.94 238.84 226.70
  C 237.40 224.85 235.23 223.59 233.41 222.04
  Q 230.20 219.31 234.42 219.36
  Q 236.01 219.38 237.74 219.32
  Q 239.08 219.28 238.83 218.24"
/>
<path stroke="#85afc5" vector-effect="non-scaling-stroke" d="
  M 192.72 274.64
  Q 196.13 273.53 198.97 271.75
  Q 204.17 268.47 204.79 268.20
  Q 217.36 262.54 230.48 267.19
  C 232.35 267.86 235.18 268.36 236.24 266.12
  Q 244.35 249.17 234.42 233.35
  Q 232.04 229.55 224.66 224.45"
/>
<path stroke="#85afc5" vector-effect="non-scaling-stroke" d="
  M 130.99 251.11
  Q 130.80 251.62 131.15 251.83
  Q 136.32 255.04 141.83 257.68
  Q 142.66 258.07 144.25 258.35
  Q 145.31 258.53 146.75 258.98
  Q 149.61 259.87 154.01 259.13"
/>
<path stroke="#85afc5" vector-effect="non-scaling-stroke" d="
  M 176.12 252.90
  Q 176.22 260.79 178.05 265.01
  Q 180.18 269.94 183.01 274.93
  Q 183.65 276.07 182.76 277.03
  C 180.99 278.95 178.18 283.19 175.51 283.62
  Q 171.08 284.32 166.81 285.24
  Q 163.68 285.91 160.49 287.73
  Q 157.43 289.48 154.03 290.69
  Q 152.72 291.15 151.37 291.23
  Q 149.28 291.37 148.62 291.11
  Q 142.45 288.73 136.45 284.14"
/>
<path stroke="#85afc5" vector-effect="non-scaling-stroke" d="
  M 127.47 270.60
  Q 127.28 268.36 127.01 266.20
  Q 126.75 264.07 127.04 261.81
  Q 127.40 259.03 127.51 256.14"
/>
<path stroke="#85afc5" vector-effect="non-scaling-stroke" d="
  M 137.98 304.84
  L 138.48 305.53"
/>
<path stroke="#85afc5" vector-effect="non-scaling-stroke" d="
  M 146.50 297.71
  Q 143.79 300.21 143.27 303.99"
/>
<path stroke="#85afc5" vector-effect="non-scaling-stroke" d="
  M 121.59 254.18
  Q 120.26 262.48 121.21 270.65
  C 122.18 279.03 126.86 285.45 132.61 291.04
  Q 134.24 292.62 133.71 294.79
  Q 132.32 300.47 132.92 306.77
  Q 133.05 308.08 131.89 308.73
  Q 127.75 311.07 123.77 310.27
  Q 122.47 310.01 121.00 309.92
  Q 119.24 309.81 117.71 309.33
  Q 105.79 305.56 98.19 294.00"
/>
<path stroke="#85afc5" vector-effect="non-scaling-stroke" d="
  M 148.80 304.22
  Q 149.44 304.25 149.97 302.98"
/>
<path stroke="#85afc5" vector-effect="non-scaling-stroke" d="
  M 152.96 340.35
  Q 157.73 344.32 160.00 345.19
  C 165.01 347.12 171.84 347.83 176.63 345.30
  C 180.42 343.30 184.23 340.46 185.07 335.95
  Q 185.83 331.84 187.20 328.33
  Q 190.96 318.66 199.48 312.22
  Q 202.16 310.19 200.39 307.39
  Q 197.80 303.33 195.08 300.40
  C 191.73 296.79 185.03 292.96 180.01 292.65
  Q 174.70 292.33 168.85 292.35"
/>
<path stroke="#85afc5" vector-effect="non-scaling-stroke" d="
  M 252.53 263.32
  Q 265.23 264.18 274.06 271.94
  Q 276.77 274.31 278.41 277.53
  Q 283.36 287.25 281.64 297.25"
/>
<path stroke="#85afc5" vector-effect="non-scaling-stroke" d="
  M 277.26 296.17
  Q 273.95 293.78 269.88 292.90
  Q 262.63 291.34 255.21 291.73"
/>
<path stroke="#85afc5" vector-effect="non-scaling-stroke" d="
  M 196.92 360.19
  Q 208.93 373.41 225.73 371.32
  Q 230.91 370.68 234.90 368.40
  Q 239.08 366.01 242.59 362.34
  Q 243.79 361.09 244.75 359.51
  Q 245.71 357.93 246.72 356.48
  Q 248.15 354.39 248.95 351.58
  C 250.02 347.80 251.35 343.83 251.17 340.05
  Q 250.86 333.57 247.76 326.83
  C 246.06 323.12 240.68 317.43 237.30 315.39
  Q 230.50 311.27 218.86 311.11"
/>
<path stroke="#85afc5" vector-effect="non-scaling-stroke" d="
  M 209.58 306.65
  Q 227.57 301.65 241.47 312.07
  Q 242.66 312.96 243.81 313.20
  Q 245.74 313.59 246.33 311.85
  C 248.74 304.75 249.98 295.54 245.95 288.79
  C 242.87 283.64 238.31 278.67 232.62 275.97
  Q 225.05 272.38 215.83 273.26"
/>
<path stroke="#85afc5" vector-effect="non-scaling-stroke" d="
  M 203.45 299.95
  Q 200.07 294.61 194.39 291.23"
/>
<path stroke="#85afc5" vector-effect="non-scaling-stroke" d="
  M 260.46 297.96
  Q 265.80 299.52 270.74 300.45
  Q 279.29 302.05 282.97 309.21
  Q 283.98 311.17 284.12 313.53
  C 284.35 317.22 284.71 320.52 283.20 324.03
  Q 282.58 325.45 282.14 327.02
  C 281.51 329.28 280.03 331.08 278.90 333.10
  Q 278.06 334.63 276.84 335.99
  Q 272.67 340.66 266.61 342.41
  Q 265.06 342.86 262.95 342.93
  Q 261.18 343.00 259.36 343.32"
/>
<path stroke="#85afc5" vector-effect="non-scaling-stroke" d="
  M 252.16 325.22
  Q 251.74 322.88 250.79 322.48"
/>
</g>
<path fill="#16749d" d="
  M 74.38 36.64
  Q 81.54 40.92 88.35 44.66
  Q 93.16 47.31 103.07 54.82
  Q 108.81 59.17 114.91 64.75
  Q 121.93 71.17 125.79 75.73
  Q 130.80 81.63 136.44 89.42
  Q 139.14 93.15 140.97 97.12
  C 142.98 101.52 145.63 106.96 149.28 110.29
  Q 153.85 114.46 157.04 120.53
  A 2.28 2.28 0.0 0 1 156.34 123.44
  Q 144.47 131.84 141.27 147.00
  C 140.92 148.63 139.86 149.70 138.09 149.34
  C 129.14 147.53 121.24 150.67 113.32 154.78
  Q 107.84 150.35 103.36 143.74
  Q 102.32 136.89 98.73 137.04
  Q 99.73 137.27 100.79 136.69
  Q 101.33 136.40 101.39 135.79
  C 102.03 129.55 103.29 124.33 105.84 118.83
  C 109.29 111.36 117.09 105.03 125.36 103.94
  Q 128.28 103.56 130.92 103.06
  A 0.91 0.91 0.0 0 0 131.66 102.07
  Q 131.41 99.72 130.23 97.80
  Q 123.44 86.71 117.16 80.09
  Q 113.61 76.34 112.69 74.77
  Q 102.40 63.68 91.74 56.76
  Q 76.65 46.97 72.63 44.86
  Q 43.98 29.75 12.79 20.95
  Q 12.70 20.93 9.36 19.61
  Q 6.41 18.46 3.39 19.73
  Q 1.42 16.97 2.53 12.21
  Q 2.64 11.72 3.07 11.48
  C 6.13 9.69 10.26 10.46 13.34 11.68
  Q 21.18 14.79 29.21 17.34
  C 42.15 21.47 54.29 26.40 66.74 32.22
  Q 71.08 34.25 74.38 36.64
  Z"
/>
<path fill="#f3e9ec" d="
  M 112.69 74.77
  Q 104.68 67.84 96.39 61.36
  Q 93.69 59.24 90.77 57.65
  C 88.08 56.18 85.99 54.05 83.32 52.47
  C 68.27 43.55 51.92 36.09 34.41 29.56
  Q 29.08 27.57 18.93 24.59
  Q 11.32 22.35 3.39 19.73
  Q 6.41 18.46 9.36 19.61
  Q 12.70 20.93 12.79 20.95
  Q 43.98 29.75 72.63 44.86
  Q 76.65 46.97 91.74 56.76
  Q 102.40 63.68 112.69 74.77
  Z"
/>
<path fill="#f3e9ec" d="
  M 74.38 36.64
  Q 82.15 39.79 87.75 43.32
  Q 97.08 49.21 104.98 55.12
  Q 123.34 68.83 137.41 88.36
  C 139.66 91.48 141.29 94.77 143.06 98.22
  C 144.15 100.34 145.76 102.05 146.93 104.11
  Q 152.25 113.53 160.37 119.92
  Q 161.11 120.50 162.48 117.73
  Q 165.04 119.43 166.76 118.79
  Q 170.97 117.21 176.17 117.24
  Q 188.22 117.30 197.49 124.19
  C 199.62 125.78 201.79 126.04 202.72 123.03
  Q 204.47 117.34 204.71 111.49
  C 205.28 97.78 193.83 88.05 181.75 84.74
  Q 178.45 83.84 168.88 85.24
  Q 178.57 81.47 187.59 85.65
  C 191.91 87.65 197.98 91.67 200.96 95.50
  Q 204.16 99.61 205.63 104.14
  Q 206.50 106.80 207.46 109.26
  Q 208.24 111.27 208.29 113.33
  A 1.67 1.64 63.9 0 1 207.94 114.38
  C 205.60 117.36 206.18 120.69 206.93 124.10
  A 0.68 0.66 -17.8 0 1 206.53 124.86
  Q 201.07 127.11 195.36 126.88
  A 1.28 1.26 -18.9 0 1 194.44 126.44
  C 192.94 124.69 191.40 122.06 189.16 121.31
  C 184.43 119.73 179.16 118.59 174.29 120.08
  Q 168.80 121.75 163.04 120.27
  A 1.55 1.54 20.1 0 0 161.28 121.08
  Q 159.46 124.77 155.58 127.72
  C 148.57 133.06 145.12 141.40 143.98 150.04
  Q 143.91 150.55 143.45 150.78
  Q 141.78 151.59 139.65 152.20
  C 136.91 152.99 134.63 151.48 131.99 150.90
  C 127.73 149.96 123.06 153.18 119.30 154.90
  Q 116.58 156.15 113.32 154.78
  C 121.24 150.67 129.14 147.53 138.09 149.34
  C 139.86 149.70 140.92 148.63 141.27 147.00
  Q 144.47 131.84 156.34 123.44
  A 2.28 2.28 0.0 0 0 157.04 120.53
  Q 153.85 114.46 149.28 110.29
  C 145.63 106.96 142.98 101.52 140.97 97.12
  Q 139.14 93.15 136.44 89.42
  Q 130.80 81.63 125.79 75.73
  Q 121.93 71.17 114.91 64.75
  Q 108.81 59.17 103.07 54.82
  Q 93.16 47.31 88.35 44.66
  Q 81.54 40.92 74.38 36.64
  Z"
/>
<path fill="#f3e9ec" d="
  M 667.15 331.51
  Q 667.38 330.84 667.69 331.28
  Q 686.12 341.89 707.26 345.04
  C 729.90 348.40 752.63 348.44 774.95 344.25
  Q 782.95 342.74 789.76 340.12
  Q 795.15 338.05 800.86 335.44
  Q 803.20 334.36 805.49 332.89
  Q 807.58 331.54 809.55 330.30
  Q 819.94 323.77 829.34 311.49
  Q 839.43 298.31 844.32 281.90
  Q 845.03 279.50 845.90 277.11
  Q 846.81 274.60 847.05 272.06
  C 847.32 269.13 848.50 266.32 848.89 263.34
  Q 849.55 258.22 850.27 253.07
  C 851.38 245.11 851.69 237.33 852.24 229.46
  Q 852.67 223.31 852.70 216.04
  Q 852.94 157.22 852.85 84.25
  Q 852.83 65.69 852.91 44.22
  A 1.46 1.44 2.8 0 0 851.58 42.77
  Q 847.51 42.42 843.33 42.39
  C 841.21 42.38 839.21 41.98 837.10 41.70
  Q 834.80 41.39 832.40 41.34
  Q 821.88 41.17 811.18 40.84
  Q 824.05 39.85 829.50 40.36
  Q 838.44 41.19 849.75 41.82
  Q 852.75 41.99 854.85 43.54
  A 1.87 1.86 18.3 0 1 855.61 45.04
  Q 855.64 111.50 855.15 175.00
  C 855.04 188.72 855.43 206.05 854.80 221.90
  Q 854.64 225.99 854.09 229.81
  C 853.04 237.16 853.01 244.65 852.91 252.20
  C 852.85 256.90 851.07 260.97 850.71 265.54
  C 850.57 267.28 850.58 268.94 849.95 270.60
  C 848.34 274.80 848.08 279.02 846.61 283.30
  Q 840.96 299.78 832.05 312.50
  Q 826.03 321.11 816.31 328.51
  C 797.26 343.01 773.17 348.24 748.56 349.18
  Q 725.33 350.06 704.09 346.26
  Q 691.29 343.97 677.53 337.37
  Q 670.94 334.22 667.15 331.51
  Z"
/>
<path fill="#095373" d="
  M 672.44 40.81
  Q 679.08 41.79 689.74 42.81
  Q 692.35 43.06 694.10 42.25
  L 696.46 43.33
  Q 696.50 127.24 696.62 211.25
  Q 696.64 229.29 698.88 245.46
  C 700.86 259.77 705.87 275.36 720.52 280.59
  Q 728.66 283.49 739.49 283.42
  Q 742.04 283.40 744.33 282.97
  Q 746.54 282.56 748.76 282.46
  Q 752.42 282.30 755.58 281.21
  Q 760.75 279.43 764.29 275.67
  Q 766.70 272.85 769.74 270.48
  Q 770.76 269.69 772.12 266.76
  C 773.55 263.69 774.06 260.44 775.12 257.24
  C 776.53 252.96 776.24 248.45 777.50 244.08
  Q 778.49 240.66 778.75 236.84
  C 779.11 231.69 779.85 226.64 780.08 221.53
  Q 781.13 198.10 780.94 184.74
  C 780.69 167.02 781.01 149.31 780.81 131.72
  Q 780.49 104.27 780.22 76.58
  C 780.13 67.12 780.50 58.17 779.83 48.64
  Q 779.68 46.49 781.06 43.74
  Q 781.31 43.25 781.81 43.03
  Q 783.71 42.20 785.39 42.13
  Q 793.01 41.79 802.75 40.76
  Q 806.81 40.33 811.18 40.84
  Q 821.88 41.17 832.40 41.34
  Q 834.80 41.39 837.10 41.70
  C 839.21 41.98 841.21 42.38 843.33 42.39
  Q 847.51 42.42 851.58 42.77
  A 1.46 1.44 2.8 0 1 852.91 44.22
  Q 852.83 65.69 852.85 84.25
  Q 852.94 157.22 852.70 216.04
  Q 852.67 223.31 852.24 229.46
  C 851.69 237.33 851.38 245.11 850.27 253.07
  Q 849.55 258.22 848.89 263.34
  C 848.50 266.32 847.32 269.13 847.05 272.06
  Q 846.81 274.60 845.90 277.11
  Q 845.03 279.50 844.32 281.90
  Q 839.43 298.31 829.34 311.49
  Q 819.94 323.77 809.55 330.30
  Q 807.58 331.54 805.49 332.89
  Q 803.20 334.36 800.86 335.44
  Q 795.15 338.05 789.76 340.12
  Q 782.95 342.74 774.95 344.25
  C 752.63 348.44 729.90 348.40 707.26 345.04
  Q 686.12 341.89 667.69 331.28
  Q 664.10 327.35 659.98 326.29
  Q 653.97 321.15 649.20 315.30
  Q 641.90 306.36 636.70 295.03
  C 632.36 285.58 630.65 274.30 628.00 264.05
  Q 626.95 259.97 626.85 255.54
  C 626.67 247.46 624.49 239.65 624.35 231.42
  Q 624.23 223.47 624.25 216.97
  Q 624.45 173.39 623.81 132.34
  C 623.76 128.51 624.09 124.68 623.93 120.86
  C 623.63 113.74 624.22 106.76 624.22 99.68
  Q 624.23 72.97 624.31 45.25
  A 0.97 0.96 -15.3 0 1 624.79 44.42
  Q 627.11 43.10 630.02 42.75
  Q 651.31 40.24 672.44 40.81
  Z"
/>
<path fill="#16749d" d="
  M 672.44 40.81
  Q 683.34 40.78 694.10 42.25
  Q 692.35 43.06 689.74 42.81
  Q 679.08 41.79 672.44 40.81
  Z"
/>
<path fill="#f3e9ec" d="
  M 970.17 342.11
  C 976.58 343.86 983.34 343.91 989.73 344.69
  C 997.96 345.70 1005.54 345.89 1013.54 345.32
  Q 1026.95 344.36 1040.50 342.58
  Q 1042.20 342.36 1042.20 340.64
  Q 1042.18 239.70 1042.20 126.73
  Q 1042.20 118.68 1041.96 111.00
  Q 1041.92 109.71 1042.05 109.15
  Q 1042.42 107.50 1044.12 107.50
  L 1110.76 107.43
  Q 1112.64 107.43 1112.78 105.56
  C 1113.32 97.98 1114.77 90.43 1115.12 82.92
  Q 1115.96 64.39 1113.04 46.19
  C 1112.62 43.59 1112.88 42.16 1109.75 42.39
  Q 1089.78 43.81 1066.51 42.68
  Q 1090.08 42.69 1107.01 41.67
  Q 1110.64 41.46 1113.73 42.49
  Q 1114.32 42.69 1114.38 43.32
  C 1114.98 49.62 1116.79 55.44 1116.87 61.95
  Q 1117.10 78.77 1116.74 90.90
  Q 1116.61 95.44 1115.23 101.18
  C 1114.78 103.04 1115.70 107.92 1113.40 108.73
  C 1108.08 110.59 1104.65 109.09 1099.74 109.05
  Q 1080.11 108.87 1060.09 109.42
  C 1055.25 109.55 1050.43 108.70 1045.75 109.57
  A 2.19 2.19 0.0 0 0 1044.00 112.15
  Q 1044.68 115.49 1044.69 119.25
  Q 1044.89 196.90 1044.60 277.01
  C 1044.53 298.98 1044.86 321.23 1044.73 342.71
  A 0.80 0.79 79.1 0 1 1044.24 343.45
  Q 1041.57 344.57 1040.14 344.69
  C 1032.36 345.36 1023.90 346.72 1017.11 347.02
  Q 1000.38 347.74 993.62 346.89
  Q 983.87 345.68 974.13 344.43
  Q 969.70 343.86 970.17 342.11
  Z"
/>
<path fill="#095373" d="
  M 570.27 42.30
  Q 573.67 43.38 577.13 43.16
  Q 577.22 43.16 578.05 43.37
  Q 578.26 43.43 578.57 43.44
  Q 580.94 57.66 581.13 61.38
  Q 581.83 74.59 581.00 88.74
  C 580.68 94.15 579.23 100.14 578.79 105.79
  Q 578.63 107.78 576.63 107.72
  C 555.33 107.08 533.60 107.50 512.75 107.42
  Q 511.15 107.42 509.55 107.88
  A 1.92 1.92 0.0 0 0 508.17 109.85
  Q 508.56 116.19 508.54 123.12
  Q 508.45 169.38 508.31 219.19
  C 508.28 231.78 508.75 243.73 508.62 256.01
  Q 508.52 266.06 508.58 276.00
  C 508.70 292.32 508.21 308.30 508.34 324.41
  Q 508.41 333.10 508.42 341.25
  A 1.21 1.21 0.0 0 1 507.36 342.45
  L 497.95 343.60
  Q 494.49 343.25 490.63 344.28
  Q 473.47 346.84 455.66 344.51
  Q 452.17 344.06 446.54 343.55
  Q 442.03 343.15 437.43 342.27
  L 435.88 340.93
  Q 435.45 340.56 435.48 339.99
  Q 435.88 332.87 435.57 325.21
  C 435.32 318.96 435.81 312.79 435.86 306.50
  Q 436.30 257.38 436.22 214.74
  Q 436.20 206.03 436.14 198.50
  C 436.01 181.92 436.33 162.16 435.65 144.25
  Q 435.17 131.64 435.87 122.95
  C 436.19 119.02 435.54 115.39 436.22 111.52
  Q 436.33 110.94 435.92 110.51
  L 435.22 109.76
  Q 435.84 108.95 435.24 108.16
  A 1.23 1.22 71.3 0 0 434.26 107.67
  L 365.40 107.32
  Q 365.57 105.75 365.55 104.15
  Q 365.54 102.71 364.90 101.08
  Q 363.06 96.40 363.06 91.72
  Q 363.07 78.81 362.99 66.74
  Q 362.94 58.60 364.77 51.96
  C 365.46 49.45 365.60 47.08 365.66 44.53
  Q 365.67 43.95 366.19 43.68
  Q 369.41 41.96 372.18 42.16
  Q 383.71 42.97 398.12 42.86
  Q 461.54 42.36 554.00 42.66
  Q 557.28 42.67 570.27 42.30
  Z"
/>
<path fill="#16749d" d="
  M 578.47 42.96
  Q 578.24 43.58 578.57 43.44
  Q 578.26 43.43 578.05 43.37
  Q 577.22 43.16 577.13 43.16
  Q 573.67 43.38 570.27 42.30
  Q 574.78 41.52 578.47 42.96
  Z"
/>
<path fill="#095373" d="
  M 1066.51 42.68
  Q 1089.78 43.81 1109.75 42.39
  C 1112.88 42.16 1112.62 43.59 1113.04 46.19
  Q 1115.96 64.39 1115.12 82.92
  C 1114.77 90.43 1113.32 97.98 1112.78 105.56
  Q 1112.64 107.43 1110.76 107.43
  L 1044.12 107.50
  Q 1042.42 107.50 1042.05 109.15
  Q 1041.92 109.71 1041.96 111.00
  Q 1042.20 118.68 1042.20 126.73
  Q 1042.18 239.70 1042.20 340.64
  Q 1042.20 342.36 1040.50 342.58
  Q 1026.95 344.36 1013.54 345.32
  C 1005.54 345.89 997.96 345.70 989.73 344.69
  C 983.34 343.91 976.58 343.86 970.17 342.11
  Q 970.24 194.42 970.18 145.75
  Q 970.16 129.76 968.81 111.55
  Q 968.78 111.05 968.53 110.62
  Q 968.24 110.10 968.15 109.59
  Q 969.12 108.51 967.52 107.80
  Q 966.90 107.52 965.91 107.52
  Q 932.83 107.46 898.84 107.49
  Q 898.23 104.87 897.96 101.78
  Q 897.70 98.85 896.86 96.36
  Q 895.99 93.76 895.86 91.09
  Q 895.38 81.92 895.51 69.85
  Q 895.61 60.82 897.23 55.37
  C 898.24 51.97 897.94 48.72 898.43 45.30
  C 898.87 42.22 902.52 41.66 905.09 41.96
  Q 909.18 42.44 913.50 42.44
  Q 990.03 42.35 1066.51 42.68
  Z"
/>
<path fill="#f3e9ec" d="
  M 578.47 42.96
  Q 580.16 43.55 581.45 44.64
  Q 581.85 44.98 581.81 45.50
  C 581.40 51.02 582.72 56.34 583.16 61.66
  C 583.64 67.50 584.40 73.23 584.08 79.17
  Q 583.64 87.40 582.43 95.11
  C 581.81 99.09 581.92 102.92 581.68 106.81
  A 2.00 1.99 -15.1 0 1 580.79 108.35
  Q 578.01 110.20 574.64 110.07
  Q 557.20 109.38 538.17 109.08
  C 531.80 108.98 525.52 109.89 519.03 109.05
  Q 515.32 108.56 511.69 110.14
  A 1.75 1.74 70.2 0 0 510.71 112.23
  Q 511.71 115.69 511.53 119.50
  Q 510.70 136.29 510.58 152.84
  Q 510.33 185.13 509.99 217.94
  Q 509.85 230.96 510.57 244.51
  C 511.42 260.56 510.68 276.88 510.81 292.54
  C 510.88 300.85 510.32 309.57 510.21 317.82
  Q 510.12 324.99 511.26 334.37
  Q 511.46 335.96 511.34 337.79
  C 511.13 341.21 510.90 344.65 506.48 344.91
  C 498.35 345.40 490.10 346.72 482.06 347.14
  Q 462.54 348.17 443.19 344.80
  C 441.34 344.47 438.35 344.12 437.43 342.27
  Q 442.03 343.15 446.54 343.55
  Q 452.17 344.06 455.66 344.51
  Q 473.47 346.84 490.63 344.28
  L 497.95 343.60
  L 507.36 342.45
  A 1.21 1.21 0.0 0 0 508.42 341.25
  Q 508.41 333.10 508.34 324.41
  C 508.21 308.30 508.70 292.32 508.58 276.00
  Q 508.52 266.06 508.62 256.01
  C 508.75 243.73 508.28 231.78 508.31 219.19
  Q 508.45 169.38 508.54 123.12
  Q 508.56 116.19 508.17 109.85
  A 1.92 1.92 0.0 0 1 509.55 107.88
  Q 511.15 107.42 512.75 107.42
  C 533.60 107.50 555.33 107.08 576.63 107.72
  Q 578.63 107.78 578.79 105.79
  C 579.23 100.14 580.68 94.15 581.00 88.74
  Q 581.83 74.59 581.13 61.38
  Q 580.94 57.66 578.57 43.44
  Q 578.24 43.58 578.47 42.96
  Z"
/>
<path fill="#f3e9ec" d="
  M 696.46 43.33
  Q 698.90 43.91 698.90 45.37
  Q 698.64 151.05 698.91 227.25
  Q 698.92 231.33 699.97 235.00
  C 701.43 240.07 701.39 244.30 701.37 249.19
  Q 701.36 251.90 702.33 253.85
  C 703.42 256.07 703.67 258.38 704.62 260.72
  Q 706.78 266.02 709.81 270.66
  C 714.72 278.14 723.86 281.80 732.63 282.34
  Q 743.02 282.99 751.38 281.41
  Q 757.86 280.18 764.29 275.67
  Q 760.75 279.43 755.58 281.21
  Q 752.42 282.30 748.76 282.46
  Q 746.54 282.56 744.33 282.97
  Q 742.04 283.40 739.49 283.42
  Q 728.66 283.49 720.52 280.59
  C 705.87 275.36 700.86 259.77 698.88 245.46
  Q 696.64 229.29 696.62 211.25
  Q 696.50 127.24 696.46 43.33
  Z"
/>
<path fill="#16749d" d="
  M 162.48 117.73
  Q 159.59 109.48 151.18 103.33
  Q 149.71 102.26 150.28 100.30
  C 151.23 97.06 152.68 94.76 155.38 92.67
  Q 161.64 87.82 168.88 85.24
  Q 178.45 83.84 181.75 84.74
  C 193.83 88.05 205.28 97.78 204.71 111.49
  Q 204.47 117.34 202.72 123.03
  C 201.79 126.04 199.62 125.78 197.49 124.19
  Q 188.22 117.30 176.17 117.24
  Q 170.97 117.21 166.76 118.79
  Q 165.04 119.43 162.48 117.73
  Z"
/>
<path fill="#f3e9ec" d="
  M 365.40 107.32
  L 434.26 107.67
  A 1.23 1.22 71.3 0 1 435.24 108.16
  Q 435.84 108.95 435.22 109.76
  C 431.21 108.75 426.58 109.30 422.51 109.11
  C 411.67 108.63 400.73 108.67 389.86 109.30
  Q 381.68 109.77 371.75 109.92
  Q 366.98 110.00 365.40 107.32
  Z"
/>
<path fill="#f3e9ec" d="
  M 898.84 107.49
  Q 932.83 107.46 965.91 107.52
  Q 966.90 107.52 967.52 107.80
  Q 969.12 108.51 968.15 109.59
  Q 964.16 108.65 959.94 108.87
  Q 953.67 109.19 953.54 109.19
  Q 928.64 109.21 903.75 109.69
  Q 901.32 109.74 898.84 107.49
  Z"
/>
<path fill="#f3e9ec" d="
  M 163.59 179.21
  Q 172.35 169.54 184.51 165.70
  C 189.73 164.05 194.49 164.79 199.75 165.39
  C 202.02 165.65 204.39 165.33 204.87 162.56
  Q 206.26 154.59 205.85 148.15
  Q 205.84 148.05 205.83 148.15
  Q 205.73 149.53 205.71 150.92
  Q 205.70 151.34 205.55 150.95
  Q 205.52 150.86 205.53 150.76
  C 206.08 145.00 203.45 140.21 199.97 135.66
  Q 196.30 130.86 190.94 127.98
  Q 189.33 127.12 186.12 126.36
  Q 183.63 125.77 181.23 124.85
  Q 188.88 125.43 193.00 127.07
  Q 196.00 128.27 200.01 132.24
  C 201.34 133.56 201.19 135.19 202.89 136.27
  A 1.37 1.33 9.8 0 1 203.47 137.07
  L 203.93 138.94
  Q 204.07 139.48 204.49 139.85
  C 206.28 141.41 207.71 142.88 208.24 145.36
  Q 208.67 147.33 209.15 149.36
  Q 209.51 150.82 210.41 150.43
  A 0.70 0.69 80.0 0 0 210.83 149.82
  L 211.11 144.15
  Q 212.74 147.11 212.62 151.67
  A 0.81 0.81 0.0 0 0 213.69 152.46
  Q 217.10 151.30 220.24 149.80
  C 226.90 146.64 234.86 146.52 242.12 148.06
  Q 242.59 148.17 243.02 147.94
  Q 244.58 147.10 244.59 144.94
  C 244.61 140.91 244.99 136.57 244.15 132.71
  Q 241.78 121.85 232.47 115.58
  Q 226.42 111.50 217.74 110.40
  Q 225.67 109.80 233.57 115.19
  Q 237.70 118.01 239.80 120.83
  Q 244.90 127.66 247.43 133.72
  C 249.16 137.85 247.81 143.21 246.90 147.49
  C 246.28 150.37 241.25 150.31 239.13 149.90
  Q 234.25 148.96 229.46 149.29
  C 224.23 149.66 221.17 154.20 215.83 153.56
  C 214.19 153.36 211.02 153.08 209.70 154.19
  C 208.65 155.08 208.70 156.99 208.40 158.28
  Q 208.28 158.81 207.93 159.23
  Q 206.22 161.26 207.56 163.49
  A 0.96 0.95 -43.1 0 1 207.52 164.53
  C 204.73 168.42 196.93 167.26 192.85 166.71
  C 185.20 165.66 175.19 171.81 169.64 176.63
  Q 166.90 179.01 163.59 179.21
  Z"
/>
<path fill="#16749d" d="
  M 217.74 110.40
  Q 226.42 111.50 232.47 115.58
  Q 241.78 121.85 244.15 132.71
  C 244.99 136.57 244.61 140.91 244.59 144.94
  Q 244.58 147.10 243.02 147.94
  Q 242.59 148.17 242.12 148.06
  C 234.86 146.52 226.90 146.64 220.24 149.80
  Q 217.10 151.30 213.69 152.46
  A 0.81 0.81 0.0 0 1 212.62 151.67
  Q 212.74 147.11 211.11 144.15
  Q 209.45 140.23 208.63 135.92
  C 208.39 134.71 207.86 134.44 206.98 133.73
  A 1.52 1.52 0.0 0 1 207.09 131.29
  Q 209.79 129.49 208.33 125.55
  Q 209.79 124.84 209.26 122.93
  C 211.90 121.26 211.28 116.47 211.20 113.73
  Q 211.18 113.23 211.59 112.94
  Q 214.74 110.73 217.74 110.40
  Z"
/>
<path fill="#f3e9ec" d="
  M 209.26 122.93
  Q 209.79 124.84 208.33 125.55
  Q 207.69 123.58 209.26 122.93
  Z"
/>
<path fill="#16749d" d="
  M 181.23 124.85
  Q 183.63 125.77 186.12 126.36
  Q 189.33 127.12 190.94 127.98
  Q 196.30 130.86 199.97 135.66
  C 203.45 140.21 206.08 145.00 205.53 150.76
  Q 205.52 150.86 205.55 150.95
  Q 205.70 151.34 205.71 150.92
  Q 205.73 149.53 205.83 148.15
  Q 205.84 148.05 205.85 148.15
  Q 206.26 154.59 204.87 162.56
  C 204.39 165.33 202.02 165.65 199.75 165.39
  C 194.49 164.79 189.73 164.05 184.51 165.70
  Q 172.35 169.54 163.59 179.21
  Q 161.28 178.54 160.33 177.61
  Q 159.70 175.49 157.74 175.40
  Q 153.44 171.70 152.15 168.30
  C 150.97 165.20 149.15 161.94 148.93 158.66
  Q 148.79 156.46 148.13 154.13
  Q 147.57 152.20 148.24 149.85
  Q 152.90 133.41 168.41 126.39
  Q 174.39 123.69 181.23 124.85
  Z"
/>
<path fill="#16749d" d="
  M 94.96 136.74
  Q 96.03 143.09 99.37 150.14
  Q 101.71 155.09 105.34 157.10
  Q 107.25 158.17 108.43 159.90
  Q 97.59 171.36 98.03 187.21
  Q 98.08 188.93 97.64 189.71
  Q 96.75 191.28 94.77 190.54
  Q 87.34 187.77 81.27 180.90
  Q 78.88 178.21 77.45 173.55
  Q 73.26 159.90 80.22 147.60
  Q 83.94 141.05 90.00 137.79
  Q 92.48 136.46 94.96 136.74
  Z"
/>
<path fill="#f3e9ec" d="
  M 94.96 136.74
  L 98.73 137.04
  Q 102.32 136.89 103.36 143.74
  Q 102.08 142.42 100.79 142.03
  A 0.96 0.96 0.0 0 0 99.55 142.87
  C 99.30 145.92 99.68 148.08 101.28 150.83
  Q 103.05 153.87 105.34 157.10
  Q 101.71 155.09 99.37 150.14
  Q 96.03 143.09 94.96 136.74
  Z"
/>
<path fill="#f3e9ec" d="
  M 124.29 244.19
  Q 118.04 237.33 117.37 228.00
  C 117.07 223.66 117.51 218.50 113.67 215.68
  Q 110.19 213.12 106.88 210.07
  C 103.30 206.77 100.77 202.02 97.67 197.81
  Q 100.39 198.81 102.13 201.37
  Q 103.62 203.57 104.37 204.86
  C 105.37 206.58 106.10 206.81 107.90 207.25
  Q 109.15 207.56 109.31 206.29
  L 109.69 203.40
  L 110.23 203.53
  Q 110.72 203.64 111.06 204.01
  C 112.50 205.53 117.21 212.22 119.44 207.93
  Q 126.34 194.61 138.60 189.53
  Q 140.04 188.93 141.43 188.50
  Q 142.97 188.02 144.45 187.47
  Q 146.91 186.54 149.12 186.48
  Q 153.77 186.35 158.12 186.32
  Q 162.26 186.29 159.08 183.64
  C 156.40 181.41 152.98 180.27 150.55 177.72
  C 146.84 173.83 143.37 169.06 142.28 163.75
  C 141.87 161.70 140.85 157.23 138.49 156.74
  Q 133.05 155.60 126.97 157.57
  Q 130.48 155.80 133.96 154.43
  C 138.30 152.73 140.34 154.60 142.70 157.93
  C 144.68 160.73 143.34 163.98 144.91 166.86
  Q 147.02 170.70 149.91 174.79
  C 151.41 176.92 153.23 178.90 155.78 179.70
  Q 159.81 180.96 162.91 183.89
  A 1.84 1.84 0.0 0 1 162.67 186.76
  C 159.06 189.15 154.63 190.03 150.32 190.00
  C 138.93 189.91 128.71 196.96 123.13 207.76
  C 121.97 210.00 119.80 211.16 117.79 212.52
  A 1.00 0.99 -25.4 0 0 117.39 213.62
  C 117.85 215.22 118.42 216.70 118.47 218.40
  Q 118.66 225.37 118.98 227.26
  Q 120.41 235.66 124.29 244.19
  Z"
/>
<path fill="#f3e9ec" d="
  M 228.77 212.36
  Q 234.88 212.96 238.50 212.58
  Q 242.31 212.18 246.81 209.91
  Q 248.08 209.27 249.12 208.39
  Q 250.20 207.46 251.49 206.82
  Q 252.28 206.42 252.81 205.68
  C 253.65 204.47 254.93 204.08 255.80 202.77
  Q 257.81 199.74 259.36 196.82
  Q 260.66 194.37 261.41 191.70
  Q 262.31 188.52 262.80 185.34
  Q 263.32 182.00 262.64 179.40
  Q 261.58 175.41 259.85 171.14
  C 258.32 167.35 256.20 163.84 252.84 161.43
  Q 246.13 156.62 238.15 155.29
  Q 236.58 155.03 233.83 155.21
  Q 231.66 155.34 229.47 155.20
  Q 235.62 153.25 240.50 154.44
  C 245.97 155.78 255.80 160.03 259.01 165.85
  C 263.43 173.88 266.76 182.26 263.94 191.46
  C 260.82 201.60 254.88 209.18 244.72 212.89
  Q 240.04 214.61 235.38 216.25
  C 232.83 217.15 230.71 214.48 228.77 212.36
  Z"
/>
<path fill="#16749d" d="
  M 229.47 155.20
  Q 231.66 155.34 233.83 155.21
  Q 236.58 155.03 238.15 155.29
  Q 246.13 156.62 252.84 161.43
  C 256.20 163.84 258.32 167.35 259.85 171.14
  Q 261.58 175.41 262.64 179.40
  Q 263.32 182.00 262.80 185.34
  Q 262.31 188.52 261.41 191.70
  Q 260.66 194.37 259.36 196.82
  Q 257.81 199.74 255.80 202.77
  C 254.93 204.08 253.65 204.47 252.81 205.68
  Q 252.28 206.42 251.49 206.82
  Q 250.20 207.46 249.12 208.39
  Q 248.08 209.27 246.81 209.91
  Q 242.31 212.18 238.50 212.58
  Q 234.88 212.96 228.77 212.36
  L 228.48 193.70
  A 1.16 1.14 21.7 0 0 228.13 192.90
  L 226.44 191.31
  Q 226.67 191.32 226.82 191.29
  Q 227.19 191.23 227.09 190.87
  Q 223.10 176.70 211.35 170.25
  C 210.18 169.60 209.62 168.43 209.38 167.16
  Q 213.66 163.75 217.83 160.14
  Q 220.84 157.54 223.15 156.63
  Q 226.18 155.43 229.47 155.20
  Z"
/>
<path fill="#16749d" d="
  M 109.69 203.40
  Q 107.65 198.20 105.38 192.97
  C 104.51 190.98 104.26 188.65 104.60 186.52
  Q 105.45 181.29 106.92 176.98
  Q 108.17 173.32 111.08 168.90
  C 113.25 165.61 117.30 162.68 120.52 160.01
  Q 122.64 158.26 126.97 157.57
  Q 133.05 155.60 138.49 156.74
  C 140.85 157.23 141.87 161.70 142.28 163.75
  C 143.37 169.06 146.84 173.83 150.55 177.72
  C 152.98 180.27 156.40 181.41 159.08 183.64
  Q 162.26 186.29 158.12 186.32
  Q 153.77 186.35 149.12 186.48
  Q 146.91 186.54 144.45 187.47
  Q 142.97 188.02 141.43 188.50
  Q 140.04 188.93 138.60 189.53
  Q 126.34 194.61 119.44 207.93
  C 117.21 212.22 112.50 205.53 111.06 204.01
  Q 110.72 203.64 110.23 203.53
  L 109.69 203.40
  Z"
/>
<path fill="#f3e9ec" d="
  M 108.43 159.90
  Q 110.29 161.21 109.31 162.54
  Q 104.53 169.05 103.09 174.34
  C 101.72 179.39 97.79 182.93 100.05 188.60
  A 1.55 1.53 53.0 0 1 99.85 190.08
  C 96.47 194.55 91.19 191.28 88.07 188.69
  Q 84.10 185.38 81.27 180.90
  Q 87.34 187.77 94.77 190.54
  Q 96.75 191.28 97.64 189.71
  Q 98.08 188.93 98.03 187.21
  Q 97.59 171.36 108.43 159.90
  Z"
/>
<path fill="#f3e9ec" d="
  M 209.38 167.16
  C 209.62 168.43 210.18 169.60 211.35 170.25
  Q 223.10 176.70 227.09 190.87
  Q 227.19 191.23 226.82 191.29
  Q 226.67 191.32 226.44 191.31
  Q 225.67 190.20 225.59 190.09
  Q 224.01 188.08 223.86 190.65
  Q 223.59 195.26 223.78 199.66
  C 223.99 204.75 222.37 209.72 221.50 214.67
  Q 221.20 216.34 220.16 217.76
  Q 214.26 225.75 204.66 230.32
  Q 197.17 233.89 188.90 232.42
  Q 180.45 230.92 173.99 224.48
  Q 184.67 231.49 196.63 230.45
  Q 199.24 230.22 201.73 229.21
  Q 205.00 227.89 206.95 226.28
  Q 211.02 222.91 214.74 218.37
  Q 215.05 217.99 215.19 217.53
  Q 215.41 216.80 216.13 216.42
  A 1.42 1.39 89.5 0 0 216.72 215.81
  Q 221.15 207.03 220.66 197.10
  Q 220.61 196.14 220.32 195.28
  Q 220.06 194.53 220.10 193.70
  Q 220.15 192.59 219.75 191.35
  Q 218.57 187.74 217.05 185.41
  Q 211.05 176.21 197.88 172.79
  C 194.16 171.83 190.68 172.80 186.92 172.31
  Q 193.39 170.22 198.87 171.86
  Q 212.63 175.99 222.14 186.71
  A 0.62 0.62 0.0 0 0 223.18 186.52
  Q 223.87 184.72 223.06 182.91
  Q 220.41 176.95 214.81 174.42
  Q 211.88 173.10 209.37 171.24
  Q 208.98 170.96 208.86 170.50
  Q 208.40 168.84 209.38 167.16
  Z"
/>
<path fill="#16749d" d="
  M 186.92 172.31
  C 190.68 172.80 194.16 171.83 197.88 172.79
  Q 211.05 176.21 217.05 185.41
  Q 218.57 187.74 219.75 191.35
  Q 220.15 192.59 220.10 193.70
  Q 220.06 194.53 220.32 195.28
  Q 220.61 196.14 220.66 197.10
  Q 221.15 207.03 216.72 215.81
  A 1.42 1.39 89.5 0 1 216.13 216.42
  Q 215.41 216.80 215.19 217.53
  Q 215.05 217.99 214.74 218.37
  Q 211.02 222.91 206.95 226.28
  Q 205.00 227.89 201.73 229.21
  Q 199.24 230.22 196.63 230.45
  Q 184.67 231.49 173.99 224.48
  Q 167.69 219.43 165.40 211.39
  Q 163.36 204.21 164.06 195.99
  C 164.68 188.81 170.25 182.58 176.13 178.75
  C 179.62 176.48 182.98 173.60 186.92 172.31
  Z"
/>
<path fill="#f3e9ec" d="
  M 160.33 177.61
  L 157.74 175.40
  Q 159.70 175.49 160.33 177.61
  Z"
/>
<path fill="#f3e9ec" d="
  M 133.49 244.42
  Q 142.29 249.87 151.37 250.75
  Q 153.90 250.99 156.83 250.33
  Q 163.31 248.87 166.78 246.81
  Q 170.04 244.88 173.36 241.91
  Q 174.73 240.69 175.78 239.22
  Q 176.76 237.85 178.03 236.76
  A 1.16 1.16 0.0 0 0 177.82 234.86
  C 168.08 229.67 161.22 223.10 157.90 212.53
  C 156.13 206.90 156.33 200.55 156.28 194.67
  A 1.32 1.32 0.0 0 0 154.69 193.39
  L 145.43 195.34
  Q 149.61 191.92 151.24 191.32
  Q 154.04 190.30 158.30 192.26
  Q 158.83 192.50 158.82 193.09
  Q 158.63 199.28 158.87 205.38
  C 159.13 212.05 161.41 220.31 166.60 224.89
  Q 173.42 230.92 181.07 235.66
  A 1.28 1.28 0.0 0 1 181.43 237.50
  C 177.66 242.66 174.62 247.39 168.12 249.45
  C 161.05 251.70 156.01 254.38 148.37 251.91
  C 142.49 250.01 138.12 249.29 133.49 244.42
  Z"
/>
<path fill="#16749d" d="
  M 133.49 244.42
  Q 125.70 235.76 124.19 222.01
  C 123.74 217.92 123.82 215.83 126.29 212.39
  C 129.25 208.26 131.69 203.99 135.49 200.49
  Q 138.16 198.03 145.43 195.34
  L 154.69 193.39
  A 1.32 1.32 0.0 0 1 156.28 194.67
  C 156.33 200.55 156.13 206.90 157.90 212.53
  C 161.22 223.10 168.08 229.67 177.82 234.86
  A 1.16 1.16 0.0 0 1 178.03 236.76
  Q 176.76 237.85 175.78 239.22
  Q 174.73 240.69 173.36 241.91
  Q 170.04 244.88 166.78 246.81
  Q 163.31 248.87 156.83 250.33
  Q 153.90 250.99 151.37 250.75
  Q 142.29 249.87 133.49 244.42
  Z"
/>
<path fill="#16749d" d="
  M 97.67 197.81
  C 100.77 202.02 103.30 206.77 106.88 210.07
  Q 110.19 213.12 113.67 215.68
  C 117.51 218.50 117.07 223.66 117.37 228.00
  Q 118.04 237.33 124.29 244.19
  Q 124.73 244.70 125.30 246.60
  L 118.07 246.08
  Q 117.57 246.04 117.12 246.28
  Q 116.04 246.85 114.65 247.03
  Q 114.17 247.09 113.86 247.47
  Q 113.54 247.87 113.03 248.04
  Q 110.25 248.96 107.80 250.12
  Q 105.29 251.30 102.74 250.49
  Q 94.67 247.96 87.17 241.33
  Q 82.00 233.02 81.23 223.00
  C 80.63 215.21 85.52 205.63 90.54 200.55
  Q 93.52 197.54 97.67 197.81
  Z"
/>
<path fill="#16749d" d="
  M 262.92 208.64
  Q 270.58 214.14 271.89 216.60
  Q 276.06 224.46 276.62 226.75
  Q 277.42 229.99 276.61 238.00
  Q 276.43 239.81 275.84 241.32
  Q 275.18 243.02 274.71 244.80
  Q 274.09 247.18 272.38 249.50
  Q 269.28 253.70 267.47 255.36
  Q 265.68 256.99 263.26 256.89
  Q 258.38 256.68 253.62 255.61
  Q 251.49 255.13 248.58 255.90
  Q 248.78 251.95 248.46 247.90
  Q 248.27 245.40 247.08 243.07
  Q 245.85 240.65 244.65 238.57
  Q 242.90 231.94 238.84 226.70
  C 237.40 224.85 235.23 223.59 233.41 222.04
  Q 230.20 219.31 234.42 219.36
  Q 236.01 219.38 237.74 219.32
  Q 239.08 219.28 238.83 218.24
  Q 248.25 219.21 255.43 213.41
  Q 259.66 210.00 262.92 208.64
  Z"
/>
<path fill="#f3e9ec" d="
  M 262.92 208.64
  Q 266.75 208.93 269.54 211.49
  C 271.60 213.39 275.49 218.27 277.10 221.55
  C 279.37 226.18 278.92 233.27 278.69 238.58
  C 278.38 245.67 274.69 251.80 269.33 256.59
  Q 267.06 258.62 264.40 258.74
  C 259.06 258.99 253.25 258.91 248.58 255.90
  Q 251.49 255.13 253.62 255.61
  Q 258.38 256.68 263.26 256.89
  Q 265.68 256.99 267.47 255.36
  Q 269.28 253.70 272.38 249.50
  Q 274.09 247.18 274.71 244.80
  Q 275.18 243.02 275.84 241.32
  Q 276.43 239.81 276.61 238.00
  Q 277.42 229.99 276.62 226.75
  Q 276.06 224.46 271.89 216.60
  Q 270.58 214.14 262.92 208.64
  Z"
/>
<path fill="#f3e9ec" d="
  M 238.83 218.24
  Q 239.08 219.28 237.74 219.32
  Q 236.01 219.38 234.42 219.36
  Q 230.20 219.31 233.41 222.04
  C 235.23 223.59 237.40 224.85 238.84 226.70
  Q 242.90 231.94 244.65 238.57
  Q 241.99 235.61 241.10 234.10
  Q 239.00 230.51 238.92 234.67
  C 238.84 239.21 241.53 242.90 241.54 247.23
  Q 241.55 251.42 241.49 256.09
  C 241.46 258.13 241.05 260.51 240.06 262.33
  Q 238.79 264.65 238.28 267.04
  C 237.35 271.39 231.49 270.02 228.80 268.62
  C 222.78 265.47 214.24 266.82 208.21 268.91
  C 202.88 270.76 198.92 276.40 192.72 274.64
  Q 196.13 273.53 198.97 271.75
  Q 204.17 268.47 204.79 268.20
  Q 217.36 262.54 230.48 267.19
  C 232.35 267.86 235.18 268.36 236.24 266.12
  Q 244.35 249.17 234.42 233.35
  Q 232.04 229.55 224.66 224.45
  C 226.40 223.82 227.92 223.32 229.09 221.93
  Q 230.49 220.25 232.03 218.58
  A 1.39 1.38 15.1 0 1 232.80 218.14
  Q 235.68 217.53 238.83 218.24
  Z
  M 232.69 225.64
  A 0.85 0.85 0.0 0 0 231.85 227.08
  L 234.56 229.58
  A 0.85 0.85 0.0 0 0 234.86 229.76
  L 237.62 230.69
  A 0.85 0.85 0.0 0 0 238.70 229.60
  L 238.04 227.74
  A 0.85 0.85 0.0 0 0 237.50 227.22
  L 232.69 225.64
  Z"
/>
<path fill="#16749d" d="
  M 224.66 224.45
  Q 232.04 229.55 234.42 233.35
  Q 244.35 249.17 236.24 266.12
  C 235.18 268.36 232.35 267.86 230.48 267.19
  Q 217.36 262.54 204.79 268.20
  Q 204.17 268.47 198.97 271.75
  Q 196.13 273.53 192.72 274.64
  Q 186.90 266.82 183.99 259.76
  Q 182.60 256.38 181.50 254.04
  C 180.86 252.67 181.20 250.88 182.03 249.62
  Q 184.08 246.53 184.59 242.34
  C 185.22 237.16 194.61 238.06 198.11 238.04
  Q 202.82 238.02 207.38 235.53
  Q 213.85 231.99 220.50 226.74
  Q 222.74 224.97 224.66 224.45
  Z"
/>
<path fill="#f3e9ec" d="
  M 87.17 241.33
  Q 94.67 247.96 102.74 250.49
  Q 105.29 251.30 107.80 250.12
  Q 110.25 248.96 113.03 248.04
  Q 113.54 247.87 113.86 247.47
  Q 114.17 247.09 114.65 247.03
  Q 116.04 246.85 117.12 246.28
  Q 117.57 246.04 118.07 246.08
  L 125.30 246.60
  L 126.09 247.36
  A 0.71 0.71 0.0 0 1 125.74 248.57
  Q 116.21 250.43 108.10 252.26
  C 102.83 253.45 97.30 249.50 92.53 246.40
  Q 89.25 244.27 87.17 241.33
  Z"
/>
<path fill="#16749d" d="
  M 130.99 251.11
  Q 130.80 251.62 131.15 251.83
  Q 136.32 255.04 141.83 257.68
  Q 142.66 258.07 144.25 258.35
  Q 145.31 258.53 146.75 258.98
  Q 149.61 259.87 154.01 259.13
  Q 161.59 259.22 165.27 257.02
  Q 169.25 254.63 171.97 253.40
  Q 174.15 252.41 176.12 252.90
  Q 176.22 260.79 178.05 265.01
  Q 180.18 269.94 183.01 274.93
  Q 183.65 276.07 182.76 277.03
  C 180.99 278.95 178.18 283.19 175.51 283.62
  Q 171.08 284.32 166.81 285.24
  Q 163.68 285.91 160.49 287.73
  Q 157.43 289.48 154.03 290.69
  Q 152.72 291.15 151.37 291.23
  Q 149.28 291.37 148.62 291.11
  Q 142.45 288.73 136.45 284.14
  Q 130.92 278.41 129.57 274.95
  Q 128.60 272.46 127.47 270.60
  Q 127.28 268.36 127.01 266.20
  Q 126.75 264.07 127.04 261.81
  Q 127.40 259.03 127.51 256.14
  Q 128.85 254.55 129.27 252.11
  Q 129.40 251.34 129.78 251.19
  Q 130.22 251.00 130.99 251.11
  Z"
/>
<path fill="#f3e9ec" d="
  M 130.99 251.11
  C 134.78 251.10 137.84 254.10 140.73 256.10
  Q 145.56 259.43 154.01 259.13
  Q 149.61 259.87 146.75 258.98
  Q 145.31 258.53 144.25 258.35
  Q 142.66 258.07 141.83 257.68
  Q 136.32 255.04 131.15 251.83
  Q 130.80 251.62 130.99 251.11
  Z"
/>
<path fill="#f3e9ec" d="
  M 176.12 252.90
  L 178.67 253.67
  Q 179.22 253.83 179.11 254.39
  C 178.32 258.33 178.60 262.40 180.42 266.09
  Q 183.48 272.25 185.95 277.75
  A 0.66 0.65 53.3 0 1 185.86 278.41
  C 181.93 283.18 176.59 285.63 170.59 286.57
  C 164.84 287.46 160.63 290.14 155.45 292.21
  Q 148.45 295.03 142.01 289.79
  Q 138.29 286.76 136.45 284.14
  Q 142.45 288.73 148.62 291.11
  Q 149.28 291.37 151.37 291.23
  Q 152.72 291.15 154.03 290.69
  Q 157.43 289.48 160.49 287.73
  Q 163.68 285.91 166.81 285.24
  Q 171.08 284.32 175.51 283.62
  C 178.18 283.19 180.99 278.95 182.76 277.03
  Q 183.65 276.07 183.01 274.93
  Q 180.18 269.94 178.05 265.01
  Q 176.22 260.79 176.12 252.90
  Z"
/>
<path fill="#16749d" d="
  M 121.59 254.18
  Q 120.26 262.48 121.21 270.65
  C 122.18 279.03 126.86 285.45 132.61 291.04
  Q 134.24 292.62 133.71 294.79
  Q 132.32 300.47 132.92 306.77
  Q 133.05 308.08 131.89 308.73
  Q 127.75 311.07 123.77 310.27
  Q 122.47 310.01 121.00 309.92
  Q 119.24 309.81 117.71 309.33
  Q 105.79 305.56 98.19 294.00
  Q 95.67 287.59 96.86 278.00
  C 98.00 268.85 105.41 260.45 112.84 255.60
  Q 116.92 252.93 121.59 254.18
  Z"
/>
<path fill="#f3e9ec" d="
  M 121.59 254.18
  Q 123.61 254.89 125.41 256.34
  Q 126.05 256.85 127.51 256.14
  Q 127.40 259.03 127.04 261.81
  Q 126.75 264.07 127.01 266.20
  Q 127.28 268.36 127.47 270.60
  L 125.66 268.96
  A 0.79 0.79 0.0 0 0 124.37 269.31
  C 123.22 273.14 123.90 276.87 125.91 280.17
  Q 129.98 286.86 135.76 292.75
  A 2.53 2.52 -50.3 0 1 136.05 295.94
  C 133.20 300.16 133.94 302.15 137.98 304.84
  L 138.48 305.53
  C 128.89 319.76 112.31 309.83 102.89 301.10
  Q 99.56 298.01 98.19 294.00
  Q 105.79 305.56 117.71 309.33
  Q 119.24 309.81 121.00 309.92
  Q 122.47 310.01 123.77 310.27
  Q 127.75 311.07 131.89 308.73
  Q 133.05 308.08 132.92 306.77
  Q 132.32 300.47 133.71 294.79
  Q 134.24 292.62 132.61 291.04
  C 126.86 285.45 122.18 279.03 121.21 270.65
  Q 120.26 262.48 121.59 254.18
  Z"
/>
<path fill="#16749d" d="
  M 252.53 263.32
  Q 265.23 264.18 274.06 271.94
  Q 276.77 274.31 278.41 277.53
  Q 283.36 287.25 281.64 297.25
  Q 278.81 297.25 277.26 296.17
  Q 273.95 293.78 269.88 292.90
  Q 262.63 291.34 255.21 291.73
  Q 251.79 283.97 244.79 276.22
  Q 241.18 272.23 244.87 268.15
  Q 248.85 263.74 252.53 263.32
  Z"
/>
<path fill="#f3e9ec" d="
  M 252.53 263.32
  Q 259.41 262.65 265.51 265.50
  C 270.42 267.78 276.43 271.19 278.99 276.04
  Q 283.83 285.21 284.18 295.79
  Q 284.22 296.99 283.78 297.42
  Q 283.10 298.09 281.64 297.25
  Q 283.36 287.25 278.41 277.53
  Q 276.77 274.31 274.06 271.94
  Q 265.23 264.18 252.53 263.32
  Z"
/>
<path fill="#f3e9ec" d="
  M 196.92 360.19
  Q 208.93 373.41 225.73 371.32
  Q 230.91 370.68 234.90 368.40
  Q 239.08 366.01 242.59 362.34
  Q 243.79 361.09 244.75 359.51
  Q 245.71 357.93 246.72 356.48
  Q 248.15 354.39 248.95 351.58
  C 250.02 347.80 251.35 343.83 251.17 340.05
  Q 250.86 333.57 247.76 326.83
  C 246.06 323.12 240.68 317.43 237.30 315.39
  Q 230.50 311.27 218.86 311.11
  C 222.65 310.98 226.20 310.77 229.78 311.69
  Q 232.47 312.39 235.10 312.55
  A 1.30 1.28 -68.6 0 0 236.18 312.07
  Q 236.85 311.22 236.25 310.42
  Q 235.87 309.90 235.18 309.59
  Q 225.88 305.39 215.76 307.38
  Q 212.66 307.98 209.58 306.65
  Q 227.57 301.65 241.47 312.07
  Q 242.66 312.96 243.81 313.20
  Q 245.74 313.59 246.33 311.85
  C 248.74 304.75 249.98 295.54 245.95 288.79
  C 242.87 283.64 238.31 278.67 232.62 275.97
  Q 225.05 272.38 215.83 273.26
  Q 222.40 271.34 227.27 272.46
  C 231.06 273.32 236.57 276.05 239.55 278.88
  Q 243.92 283.03 247.48 288.16
  C 251.60 294.11 252.03 299.07 250.36 305.58
  Q 249.56 308.70 248.98 311.71
  C 248.44 314.51 245.26 315.22 242.98 316.09
  Q 242.44 316.29 242.59 316.84
  C 243.37 319.88 246.01 321.38 248.57 322.66
  A 0.83 0.83 0.0 0 1 249.01 323.58
  C 248.81 324.48 248.82 325.50 249.18 326.35
  Q 251.25 331.37 252.92 339.13
  Q 253.89 343.59 252.94 347.09
  C 251.09 354.00 247.91 360.54 242.62 365.36
  C 228.51 378.21 210.79 374.91 198.36 362.63
  Q 197.10 361.38 196.92 360.19
  Z"
/>
<path fill="#16749d" d="
  M 215.83 273.26
  Q 225.05 272.38 232.62 275.97
  C 238.31 278.67 242.87 283.64 245.95 288.79
  C 249.98 295.54 248.74 304.75 246.33 311.85
  Q 245.74 313.59 243.81 313.20
  Q 242.66 312.96 241.47 312.07
  Q 227.57 301.65 209.58 306.65
  L 203.45 299.95
  Q 200.07 294.61 194.39 291.23
  Q 193.27 290.07 193.29 288.31
  Q 193.30 287.81 193.62 287.41
  Q 198.50 281.41 205.30 277.83
  Q 210.72 274.97 215.83 273.26
  Z"
/>
<path fill="#f3e9ec" d="
  M 203.45 299.95
  Q 198.20 296.28 194.39 291.23
  Q 200.07 294.61 203.45 299.95
  Z"
/>
<path fill="#f3e9ec" d="
  M 152.96 340.35
  Q 157.73 344.32 160.00 345.19
  C 165.01 347.12 171.84 347.83 176.63 345.30
  C 180.42 343.30 184.23 340.46 185.07 335.95
  Q 185.83 331.84 187.20 328.33
  Q 190.96 318.66 199.48 312.22
  Q 202.16 310.19 200.39 307.39
  Q 197.80 303.33 195.08 300.40
  C 191.73 296.79 185.03 292.96 180.01 292.65
  Q 174.70 292.33 168.85 292.35
  C 175.21 290.46 183.90 290.76 189.62 294.69
  Q 198.18 300.56 204.22 309.36
  Q 204.89 310.34 204.01 311.14
  Q 199.00 315.74 194.16 321.91
  Q 192.92 323.48 192.34 325.99
  A 1.91 1.90 72.5 0 1 191.91 326.82
  C 190.80 328.08 189.44 329.37 189.22 331.14
  Q 188.86 334.12 188.43 337.31
  C 187.98 340.64 181.71 345.08 179.13 346.65
  C 172.43 350.72 163.97 349.58 157.86 345.16
  Q 156.61 344.26 152.96 340.35
  Z"
/>
<path fill="#f3e9ec" d="
  M 277.26 296.17
  Q 268.72 294.13 260.00 293.48
  Q 258.42 293.37 255.21 291.73
  Q 262.63 291.34 269.88 292.90
  Q 273.95 293.78 277.26 296.17
  Z"
/>
<path fill="#16749d" d="
  M 168.85 292.35
  Q 174.70 292.33 180.01 292.65
  C 185.03 292.96 191.73 296.79 195.08 300.40
  Q 197.80 303.33 200.39 307.39
  Q 202.16 310.19 199.48 312.22
  Q 190.96 318.66 187.20 328.33
  Q 185.83 331.84 185.07 335.95
  C 184.23 340.46 180.42 343.30 176.63 345.30
  C 171.84 347.83 165.01 347.12 160.00 345.19
  Q 157.73 344.32 152.96 340.35
  Q 150.60 337.86 148.75 334.69
  Q 146.98 331.67 146.45 328.39
  Q 145.37 321.76 144.62 315.61
  A 3.38 3.37 -32.8 0 1 145.09 313.45
  C 146.75 310.75 149.37 307.67 148.80 304.22
  Q 149.44 304.25 149.97 302.98
  Q 150.39 302.72 150.59 302.36
  Q 150.83 301.95 151.27 301.74
  Q 155.42 299.84 161.59 295.34
  Q 164.42 293.28 168.85 292.35
  Z"
/>
<path fill="#16749d" d="
  M 146.50 297.71
  Q 143.79 300.21 143.27 303.99
  Q 140.73 304.01 138.48 305.53
  L 137.98 304.84
  C 141.09 304.70 139.67 301.35 139.74 299.48
  A 1.36 1.33 -22.7 0 1 140.11 298.61
  Q 142.77 295.91 146.50 297.71
  Z"
/>
<path fill="#f3e9ec" d="
  M 146.50 297.71
  Q 149.60 298.96 149.97 302.98
  Q 149.44 304.25 148.80 304.22
  L 143.27 303.99
  Q 143.79 300.21 146.50 297.71
  Z"
/>
<path fill="#16749d" d="
  M 260.46 297.96
  Q 265.80 299.52 270.74 300.45
  Q 279.29 302.05 282.97 309.21
  Q 283.98 311.17 284.12 313.53
  C 284.35 317.22 284.71 320.52 283.20 324.03
  Q 282.58 325.45 282.14 327.02
  C 281.51 329.28 280.03 331.08 278.90 333.10
  Q 278.06 334.63 276.84 335.99
  Q 272.67 340.66 266.61 342.41
  Q 265.06 342.86 262.95 342.93
  Q 261.18 343.00 259.36 343.32
  Q 258.72 343.02 258.68 342.26
  C 258.34 336.06 256.89 329.68 252.16 325.22
  Q 251.74 322.88 250.79 322.48
  Q 251.03 318.11 252.58 316.12
  Q 258.54 308.39 258.52 298.59
  Q 258.52 298.09 259.01 298.01
  Q 260.13 297.85 260.46 297.96
  Z"
/>
<path fill="#f3e9ec" d="
  M 260.46 297.96
  Q 268.73 298.19 275.87 301.41
  C 279.76 303.16 282.58 306.28 284.91 309.62
  C 288.59 314.91 286.91 323.38 284.17 328.54
  Q 280.09 336.23 275.40 340.15
  C 271.32 343.56 264.24 346.47 259.36 343.32
  Q 261.18 343.00 262.95 342.93
  Q 265.06 342.86 266.61 342.41
  Q 272.67 340.66 276.84 335.99
  Q 278.06 334.63 278.90 333.10
  C 280.03 331.08 281.51 329.28 282.14 327.02
  Q 282.58 325.45 283.20 324.03
  C 284.71 320.52 284.35 317.22 284.12 313.53
  Q 283.98 311.17 282.97 309.21
  Q 279.29 302.05 270.74 300.45
  Q 265.80 299.52 260.46 297.96
  Z"
/>
<path fill="#16749d" d="
  M 218.86 311.11
  Q 230.50 311.27 237.30 315.39
  C 240.68 317.43 246.06 323.12 247.76 326.83
  Q 250.86 333.57 251.17 340.05
  C 251.35 343.83 250.02 347.80 248.95 351.58
  Q 248.15 354.39 246.72 356.48
  Q 245.71 357.93 244.75 359.51
  Q 243.79 361.09 242.59 362.34
  Q 239.08 366.01 234.90 368.40
  Q 230.91 370.68 225.73 371.32
  Q 208.93 373.41 196.92 360.19
  Q 194.87 356.91 193.61 352.64
  C 193.01 350.58 191.35 348.21 191.47 346.43
  Q 191.65 343.65 191.45 340.96
  Q 191.21 337.75 191.87 335.22
  Q 192.85 331.44 194.02 327.50
  Q 194.44 326.06 195.56 325.12
  C 198.64 322.52 200.89 319.33 204.24 316.99
  Q 211.31 312.07 218.86 311.11
  Z"
/>
<path fill="#f3e9ec" d="
  M 250.79 322.48
  Q 251.74 322.88 252.16 325.22
  Q 249.60 323.99 250.79 322.48
  Z"
/>
<path fill="#16749d" d="
  M 667.69 331.28
  Q 667.38 330.84 667.15 331.51
  L 659.98 326.29
  Q 664.10 327.35 667.69 331.28
  Z"
/>
<path fill="#16749d" d="
  M 497.95 343.60
  L 490.63 344.28
  Q 494.49 343.25 497.95 343.60
  Z"
/>
</svg>
