<svg width="304" height="328" viewBox="0 0 304 328" fill="none" xmlns="http://www.w3.org/2000/svg">
<rect x="1" y="1" width="302.489" height="327" rx="14.7637" fill="url(#paint0_linear_118_41)"/>
<rect x="1.59055" y="1.59055" width="301.308" height="325.819" rx="14.1731" stroke="url(#paint1_linear_118_41)" stroke-opacity="0.15" stroke-width="1.18109"/>
<path d="M212.225 92.5551L211.973 92.4013L212.421 92.7764L212.225 92.5551ZM215.187 86.9941L215.455 87.1182L215.455 87.1182L215.187 86.9941ZM221.777 80.6919L221.551 80.5008L221.533 80.5222L221.519 80.5467L221.777 80.6919ZM228.745 69.8618L228.554 69.6372L228.507 69.6774L228.48 69.7332L228.745 69.8618ZM238.465 57.4465L238.248 57.2464L238.22 57.2768L238.201 57.3138L238.465 57.4465ZM245.222 47.6002L245.023 47.3826L244.982 47.4195L244.958 47.4682L245.222 47.6002ZM253.719 35.7797L253.496 35.5867L253.467 35.6202L253.449 35.6608L253.719 35.7797ZM258.838 28.3519L258.628 28.1448L258.598 28.1746L258.579 28.2114L258.838 28.3519ZM263.775 22.142L263.589 21.9124L263.551 21.9429L263.525 21.9839L263.775 22.142ZM273.405 10.1955L273.67 10.3258L273.201 9.98255L273.405 10.1955ZM267.247 15.1868L267.414 15.4304L267.414 15.4304L267.247 15.1868ZM262.939 17.8506L263.083 18.1085L263.083 18.1085L262.939 17.8506ZM257.238 20.6487L257.122 20.3775L257.122 20.3775L257.238 20.6487ZM251.036 22.9857L250.944 22.705L250.944 22.705L251.036 22.9857ZM243.988 24.9586L243.92 24.6713L243.92 24.6713L243.988 24.9586ZM236.841 26.3769L236.793 26.0854L236.793 26.0854L236.841 26.3769ZM229.055 27.3825L229.026 27.0886L229.026 27.0886L229.055 27.3825ZM221.52 27.9092L221.507 27.6143L221.193 27.628L221.226 27.9401L221.52 27.9092ZM222.138 34.9982L222.433 34.9779L222.433 34.9779L222.138 34.9982ZM222.506 43.3714L222.802 43.3663L222.802 43.3663L222.506 43.3714ZM222.528 45.8441H222.233L222.233 45.8459L222.528 45.8441ZM222.434 52.2811L222.729 52.2918L222.729 52.2918L222.434 52.2811ZM222.012 59.1307L221.718 59.1047L221.718 59.1047L222.012 59.1307ZM220.671 69.1377L220.381 69.0843L220.381 69.0843L220.671 69.1377ZM219.101 76.0978L219.386 76.1749L219.386 76.1749L219.101 76.0978ZM121.234 103.13L121.104 103.394L121.104 103.394L121.234 103.13ZM212.225 92.5551L212.478 92.7088L212.03 92.3337L212.225 92.5551ZM221.52 27.9092L221.533 28.2042L221.846 28.1905L221.813 27.8784L221.52 27.9092ZM121.234 93.845L121.104 94.1098L121.104 94.11L121.234 93.845ZM221.777 80.6919L222.002 80.883L222.02 80.8615L222.034 80.8371L221.777 80.6919ZM229.055 27.3825L229.349 27.3599L229.349 27.3599L229.055 27.3825ZM122.813 80.7539L122.943 80.4889L122.941 80.4881L122.813 80.7539ZM215.187 86.9941L215.367 87.2279L215.367 87.2279L215.187 86.9941ZM228.745 69.8618L228.937 70.0863L228.984 70.0461L229.011 69.9904L228.745 69.8618ZM236.641 33.8671L236.346 33.854L236.346 33.854L236.641 33.8671ZM236.841 26.3769L236.546 26.3742L236.546 26.3742L236.841 26.3769ZM110.557 65.4344L110.421 65.6966L110.427 65.6994L110.557 65.4344ZM219.101 76.0978L218.972 75.832L218.972 75.832L219.101 76.0978ZM238.465 57.4465L238.682 57.6465L238.71 57.6161L238.729 57.5792L238.465 57.4465ZM243.697 35.6312L243.992 35.6444L243.992 35.6444L243.697 35.6312ZM243.988 24.9586L243.693 24.9557L243.693 24.9557L243.988 24.9586ZM111.764 54.2002L111.628 54.4623L111.634 54.4652L111.764 54.2002ZM220.671 69.1377L220.775 69.4139L220.775 69.4139L220.671 69.1377ZM245.222 47.6002L245.422 47.8179L245.462 47.781L245.486 47.7323L245.222 47.6002ZM250.939 24.5826L250.644 24.564L250.644 24.564L250.939 24.5826ZM251.036 22.9857L250.741 22.9685L250.741 22.9685L251.036 22.9857ZM115.756 45.0085L115.619 45.2699L115.626 45.2735L115.756 45.0085ZM222.012 59.1307L222.083 59.4173L222.083 59.4173L222.012 59.1307ZM253.719 35.7797L253.943 35.9727L253.972 35.9392L253.989 35.8986L253.719 35.7797ZM256.695 24.954L256.402 24.9146L256.402 24.9146L256.695 24.954ZM257.238 20.6487L256.945 20.6143L256.945 20.6143L257.238 20.6487ZM119.563 35.4455L119.425 35.7068L119.433 35.7105L119.563 35.4455ZM222.434 52.2811L222.377 51.9914L222.377 51.9914L222.434 52.2811ZM258.838 28.3519L259.049 28.559L259.078 28.5292L259.098 28.4924L258.838 28.3519ZM262.939 17.8506L263.225 17.9256L263.225 17.9256L262.939 17.8506ZM263.751 14.2769L264.041 14.3329L264.041 14.3329L263.751 14.2769ZM126.526 26.8109L126.39 27.0726L126.398 27.0771L126.407 27.0811L126.526 26.8109ZM222.506 43.3714L222.539 43.6649L222.539 43.6649L222.506 43.3714ZM263.775 22.142L263.96 22.3716L263.998 22.3411L264.024 22.3001L263.775 22.142ZM267.247 15.1868L266.971 15.0816L266.971 15.0816L267.247 15.1868ZM269.15 8.72484L269.438 8.78702L269.438 8.78702L269.15 8.72484ZM135.816 20.6124L135.685 20.877L135.696 20.8824L135.707 20.8868L135.816 20.6124ZM222.138 34.9982L222.123 34.7033L222.123 34.7033L222.138 34.9982ZM273.405 10.1955L273.14 10.0653L273.61 10.4085L273.405 10.1955ZM276.193 2.3927L275.905 2.32401L275.905 2.32402L276.193 2.3927ZM145.843 16.2492L145.713 16.514L145.727 16.521L145.742 16.5264L145.843 16.2492ZM212.478 92.7088C213.541 90.9651 214.536 89.1034 215.455 87.1182L214.919 86.87C214.009 88.8356 213.025 90.6774 211.973 92.4013L212.478 92.7088ZM221.519 80.5467C218.881 85.2201 215.673 89.1177 212.03 92.3337L212.421 92.7764C216.113 89.5167 219.363 85.5675 222.034 80.8371L221.519 80.5467ZM228.48 69.7332C226.477 73.8729 224.148 77.4421 221.551 80.5008L222.002 80.883C224.633 77.7839 226.988 74.1722 229.011 69.9904L228.48 69.7332ZM238.201 57.3138C235.721 62.242 232.447 66.3126 228.554 69.6372L228.937 70.0863C232.889 66.7119 236.213 62.5793 238.729 57.5792L238.201 57.3138ZM244.958 47.4682C243.1 51.1854 240.842 54.4296 238.248 57.2464L238.682 57.6465C241.314 54.7885 243.603 51.4983 245.486 47.7323L244.958 47.4682ZM253.449 35.6608C251.427 40.2568 248.562 44.1365 245.023 47.3826L245.422 47.8179C249.019 44.5191 251.933 40.5731 253.989 35.8986L253.449 35.6608ZM258.579 28.2114C257.115 30.9167 255.411 33.3693 253.496 35.5867L253.943 35.9727C255.886 33.7231 257.614 31.2354 259.098 28.4924L258.579 28.2114ZM263.525 21.9839C262.096 24.2387 260.456 26.2877 258.628 28.1448L259.049 28.559C260.905 26.6729 262.572 24.5911 264.024 22.3001L263.525 21.9839ZM273.14 10.0653C270.825 14.7754 267.575 18.6903 263.589 21.9124L263.96 22.3716C268.008 19.0998 271.314 15.1187 273.67 10.3258L273.14 10.0653ZM267.414 15.4304C269.626 13.9148 271.698 12.2444 273.61 10.4085L273.201 9.98255C271.314 11.7947 269.267 13.4448 267.08 14.9433L267.414 15.4304ZM263.083 18.1085C264.578 17.2752 266.024 16.3834 267.414 15.4304L267.08 14.9433C265.706 15.8855 264.276 16.7678 262.795 17.5927L263.083 18.1085ZM257.355 20.9199C259.333 20.0677 261.246 19.1323 263.083 18.1085L262.795 17.5927C260.977 18.606 259.083 19.5327 257.122 20.3775L257.355 20.9199ZM251.127 23.2663C253.265 22.5667 255.344 21.7863 257.355 20.9199L257.122 20.3775C255.128 21.2365 253.065 22.0106 250.944 22.705L251.127 23.2663ZM244.056 25.246C246.472 24.6749 248.833 24.0171 251.127 23.2663L250.944 22.705C248.666 23.4504 246.321 24.1037 243.92 24.6713L244.056 25.246ZM236.888 26.6683C239.322 26.2717 241.715 25.7995 244.056 25.246L243.92 24.6713C241.593 25.2214 239.214 25.6909 236.793 26.0854L236.888 26.6683ZM229.084 27.6764C231.721 27.4195 234.327 27.0857 236.888 26.6683L236.793 26.0854C234.246 26.5007 231.652 26.8329 229.026 27.0886L229.084 27.6764ZM221.533 28.2042C224.071 28.0931 226.591 27.9191 229.084 27.6764L229.026 27.0886C226.545 27.3302 224.035 27.5036 221.507 27.6143L221.533 28.2042ZM222.433 34.9779C222.271 32.6228 222.063 30.2524 221.813 27.8784L221.226 27.9401C221.475 30.3075 221.682 32.6708 221.844 35.0184L222.433 34.9779ZM222.802 43.3663C222.753 40.6054 222.627 37.8026 222.433 34.9779L221.844 35.0184C222.037 37.834 222.163 40.6267 222.211 43.3766L222.802 43.3663ZM222.823 45.8441C222.823 45.0223 222.816 44.1962 222.802 43.3663L222.211 43.3766C222.225 44.2032 222.233 45.0259 222.233 45.8441H222.823ZM222.729 52.2918C222.805 50.2055 222.837 48.0562 222.823 45.8424L222.233 45.8459C222.246 48.0518 222.214 50.1927 222.139 52.2704L222.729 52.2918ZM222.307 59.1567C222.502 56.948 222.644 54.6605 222.729 52.2918L222.139 52.2704C222.054 54.6293 221.913 56.9066 221.718 59.1047L222.307 59.1567ZM220.961 69.1912C221.541 66.0431 221.993 62.7014 222.307 59.1567L221.718 59.1047C221.406 62.6323 220.957 65.9556 220.381 69.0843L220.961 69.1912ZM219.386 76.1749C219.985 73.9606 220.511 71.6342 220.961 69.1912L220.381 69.0843C219.933 71.5121 219.41 73.8228 218.816 76.0207L219.386 76.1749ZM215.455 87.1182C216.982 83.82 218.302 80.1809 219.386 76.1749L218.816 76.0207C217.74 79.997 216.431 83.6044 214.919 86.87L215.455 87.1182ZM0.869282 44.0325L121.104 103.394L121.365 102.865L1.13072 43.503L0.869282 44.0325ZM121.104 103.394C133.984 109.729 151.727 115.385 168.795 115.302C185.871 115.219 202.306 109.387 212.478 92.7088L211.973 92.4013C201.94 108.852 185.733 114.629 168.792 114.711C151.842 114.794 134.191 109.173 121.365 102.865L121.104 103.394ZM221.813 27.8784C220.854 18.7316 219.292 9.52935 217.493 0.93946L216.915 1.06054C218.711 9.63552 220.269 18.8175 221.226 27.9401L221.813 27.8784ZM0.869282 34.748L121.104 94.1098L121.365 93.5802L1.13072 34.2185L0.869282 34.748ZM121.104 94.11C132.944 99.9331 149.69 104.956 166.508 105.851C183.323 106.745 200.257 103.515 212.421 92.7764L212.03 92.3337C200.029 102.929 183.275 106.151 166.539 105.261C149.807 104.371 133.14 99.371 121.365 93.58L121.104 94.11ZM222.034 80.8371C223.487 78.264 224.768 75.4604 225.856 72.4117L225.3 72.2131C224.223 75.2315 222.955 78.0042 221.519 80.5467L222.034 80.8371ZM225.856 72.4117C226.571 70.4095 227.203 68.3016 227.745 66.084L227.171 65.9437C226.634 68.1424 226.008 70.2308 225.3 72.2131L225.856 72.4117ZM227.745 66.084C228.438 63.2492 228.985 60.2351 229.374 57.033L228.787 56.9619C228.401 60.1422 227.858 63.1331 227.171 65.9437L227.745 66.084ZM229.374 57.033C229.627 54.9432 229.813 52.7733 229.928 50.5209L229.338 50.4908C229.224 52.7301 229.039 54.8863 228.787 56.9619L229.374 57.033ZM229.928 50.5209C230.019 48.7357 230.065 46.8986 230.065 45.0085H229.475C229.475 46.889 229.429 48.716 229.338 50.4908L229.928 50.5209ZM230.065 45.0085C230.065 44.1065 230.059 43.1998 230.046 42.2891L229.456 42.2972C229.468 43.2053 229.475 44.1093 229.475 45.0085H230.065ZM230.046 42.2891C230.01 39.6814 229.924 37.041 229.793 34.384L229.203 34.4131C229.334 37.0636 229.42 39.697 229.456 42.2972L230.046 42.2891ZM229.793 34.384C229.678 32.0518 229.529 29.7068 229.349 27.3599L228.76 27.405C228.94 29.7469 229.089 32.0865 229.203 34.4131L229.793 34.384ZM229.349 27.3599C228.662 18.3811 227.528 9.37397 226.167 0.952897L225.584 1.0471C226.943 9.45427 228.074 18.4448 228.76 27.405L229.349 27.3599ZM0.871344 22.0519L122.684 81.0196L122.941 80.4881L1.12866 21.5203L0.871344 22.0519ZM122.682 81.0188C134.353 86.7586 150.976 93.3451 167.945 95.985C184.909 98.624 202.273 97.3266 215.367 87.2279L215.007 86.7603C202.099 96.715 184.931 98.0298 168.036 95.4015C151.147 92.774 134.583 86.2137 122.943 80.4889L122.682 81.0188ZM215.367 87.2279C217.728 85.4074 219.948 83.3016 222.002 80.883L221.551 80.5008C219.525 82.888 217.334 84.9651 215.007 86.7603L215.367 87.2279ZM229.011 69.9904C229.964 68.021 230.843 65.9253 231.643 63.6972L231.087 63.4977C230.294 65.7071 229.423 67.7835 228.48 69.7332L229.011 69.9904ZM231.643 63.6972C232.603 61.0225 233.449 58.1571 234.17 55.0905L233.595 54.9553C232.879 58.0016 232.039 60.8455 231.087 63.4977L231.643 63.6972ZM234.17 55.0905C234.655 53.0293 235.083 50.8771 235.452 48.6308L234.869 48.5351C234.502 50.7688 234.076 52.9078 233.595 54.9553L234.17 55.0905ZM235.452 48.6308C235.859 46.151 236.195 43.5565 236.453 40.8429L235.865 40.7868C235.608 43.4879 235.274 46.0692 234.869 48.5351L235.452 48.6308ZM236.453 40.8429C236.667 38.6039 236.828 36.2839 236.936 33.8803L236.346 33.854C236.239 36.2481 236.078 38.5582 235.865 40.7868L236.453 40.8429ZM236.936 33.8803C236.943 33.71 236.95 33.54 236.958 33.3701L236.368 33.3452C236.36 33.5147 236.353 33.6842 236.346 33.854L236.936 33.8803ZM236.958 33.3701C237.057 31.0038 237.116 28.6729 237.136 26.3795L236.546 26.3742C236.525 28.6612 236.467 30.9856 236.368 33.3453L236.958 33.3701ZM237.136 26.3795C237.217 17.2762 236.7 8.7628 235.8 0.966124L235.213 1.03388C236.111 8.80754 236.626 17.2965 236.546 26.3742L237.136 26.3795ZM2.33692 9.58972L110.421 65.6965L110.693 65.1724L2.609 9.06558L2.33692 9.58972ZM110.427 65.6994C122.235 71.5069 141.508 78.0009 161.78 81.1324C182.045 84.2626 203.363 84.042 219.229 76.3636L218.972 75.832C203.269 83.4317 182.096 83.6729 161.871 80.5488C141.654 77.4259 122.439 70.9491 110.687 65.1695L110.427 65.6994ZM219.229 76.3636C221.522 75.254 223.702 73.9884 225.748 72.5542L225.409 72.0706C223.39 73.4854 221.238 74.7352 218.972 75.832L219.229 76.3636ZM225.748 72.5542C226.851 71.7812 227.915 70.9592 228.937 70.0863L228.554 69.6372C227.546 70.4975 226.497 71.3081 225.409 72.0706L225.748 72.5542ZM238.729 57.5792C239.763 55.5238 240.661 53.3224 241.409 50.9677L240.846 50.7887C240.107 53.1147 239.221 55.2871 238.201 57.3138L238.729 57.5792ZM241.409 50.9677C242.011 49.0763 242.516 47.0861 242.919 44.9933L242.339 44.8816C241.94 46.9527 241.441 48.9203 240.846 50.7887L241.409 50.9677ZM242.919 44.9933C243.326 42.8819 243.629 40.666 243.821 38.3418L243.232 38.2931C243.042 40.5973 242.742 42.7921 242.339 44.8816L242.919 44.9933ZM243.821 38.3418C243.894 37.4584 243.951 36.5593 243.992 35.6444L243.402 35.618C243.361 36.5257 243.305 37.4173 243.232 38.2931L243.821 38.3418ZM243.992 35.6444C244.05 34.3403 244.099 33.0436 244.141 31.755L243.551 31.7361C243.509 33.0222 243.46 34.3164 243.402 35.6181L243.992 35.6444ZM244.141 31.755C244.214 29.4639 244.261 27.1983 244.284 24.9616L243.693 24.9557C243.671 27.1881 243.624 29.4494 243.551 31.7361L244.141 31.755ZM244.284 24.9616C244.368 16.49 244.093 8.43307 243.528 0.977696L242.94 1.0223C243.503 8.46033 243.777 16.5005 243.693 24.9557L244.284 24.9616ZM10.7392 2.09059L111.628 54.4623L111.9 53.9381L11.0113 1.56646L10.7392 2.09059ZM111.634 54.4652C123.025 60.0675 141.859 66.9971 162.06 70.9321C182.254 74.8657 203.862 75.8165 220.775 69.4139L220.566 68.8616C203.807 75.2059 182.33 74.2789 162.173 70.3525C142.024 66.4276 123.24 59.5149 111.894 53.9352L111.634 54.4652ZM220.775 69.4139C223.148 68.5157 225.429 67.4725 227.601 66.2723L227.315 65.7554C225.17 66.9411 222.915 67.9726 220.566 68.8616L220.775 69.4139ZM227.601 66.2723C228.955 65.5237 230.268 64.7141 231.533 63.8404L231.198 63.3544C229.949 64.2166 228.653 65.016 227.315 65.7554L227.601 66.2723ZM231.533 63.8404C234.123 62.0522 236.518 59.9958 238.682 57.6465L238.248 57.2464C236.115 59.5621 233.753 61.5899 231.198 63.3544L231.533 63.8404ZM245.486 47.7323C246.457 45.7902 247.32 43.7219 248.066 41.5215L247.507 41.3318C246.769 43.5076 245.916 45.551 244.958 47.4682L245.486 47.7323ZM248.066 41.5215C248.71 39.6231 249.266 37.6265 249.731 35.5278L249.154 35.4002C248.694 37.4788 248.143 39.4547 247.507 41.3318L248.066 41.5215ZM249.731 35.5278C250.147 33.6479 250.489 31.6862 250.753 29.6398L250.168 29.5642C249.906 31.5939 249.566 33.5383 249.154 35.4002L249.731 35.5278ZM250.753 29.6398C250.963 28.0141 251.124 26.3351 251.233 24.6013L250.644 24.564C250.535 26.2855 250.376 27.9518 250.168 29.5642L250.753 29.6398ZM251.233 24.6013C251.267 24.0639 251.3 23.5311 251.33 23.0028L250.741 22.9685C250.71 23.4958 250.678 24.0277 250.644 24.564L251.233 24.6013ZM251.33 23.0028C251.817 14.6271 251.894 7.3802 251.681 0.990188L251.091 1.00981C251.303 7.38014 251.226 14.609 250.741 22.9685L251.33 23.0028ZM32.1259 1.26121L115.619 45.2698L115.894 44.7473L32.4012 0.738791L32.1259 1.26121ZM115.626 45.2735C126.727 50.7327 144.773 56.3899 164.317 59.6228C183.86 62.8555 204.935 63.6703 222.083 59.4173L221.941 58.8441C204.903 63.0696 183.918 62.2666 164.414 59.0402C144.91 55.8141 126.922 50.171 115.887 44.7436L115.626 45.2735ZM222.083 59.4173C224.534 58.8095 226.905 58.0981 229.181 57.2751L228.98 56.7198C226.725 57.5352 224.374 58.2408 221.941 58.8441L222.083 59.4173ZM229.181 57.2751C230.843 56.6742 232.453 56.0137 234.007 55.2906L233.758 54.7552C232.221 55.4705 230.626 56.1244 228.98 56.7198L229.181 57.2751ZM234.007 55.2906C236.607 54.0807 239.047 52.6954 241.297 51.1201L240.959 50.6363C238.739 52.1899 236.33 53.5584 233.758 54.7552L234.007 55.2906ZM241.297 51.1201C242.754 50.1003 244.132 49.0008 245.422 47.8179L245.023 47.3826C243.753 48.5472 242.395 49.6306 240.959 50.6363L241.297 51.1201ZM253.989 35.8986C254.587 34.5395 255.113 33.1193 255.561 31.6359L254.996 31.4649C254.554 32.926 254.037 34.3239 253.449 35.6608L253.989 35.8986ZM255.561 31.6359C256.009 30.1544 256.381 28.6101 256.672 27.0012L256.09 26.8961C255.804 28.4836 255.437 30.0058 254.996 31.4649L255.561 31.6359ZM256.672 27.0011C256.791 26.3428 256.896 25.6736 256.988 24.9935L256.402 24.9146C256.312 25.5861 256.208 26.2466 256.09 26.8961L256.672 27.0011ZM256.988 24.9935C257.186 23.5253 257.367 22.0889 257.532 20.6831L256.945 20.6143C256.781 22.0166 256.6 23.4497 256.402 24.9146L256.988 24.9935ZM257.532 20.6831C258.393 13.3508 258.819 6.85094 258.938 1.00598L258.347 0.994017C258.229 6.81893 257.804 13.2998 256.945 20.6143L257.532 20.6831ZM54.0755 1.26121L119.425 35.7067L119.701 35.1843L54.3508 0.738791L54.0755 1.26121ZM119.433 35.7105C130.136 40.9745 147.19 46.9112 165.916 50.6718C184.639 54.432 205.061 56.0223 222.492 52.5707L222.377 51.9914C205.054 55.4218 184.717 53.8454 166.032 50.0928C147.349 46.3407 130.344 40.4187 119.693 35.1805L119.433 35.7105ZM222.492 52.5707C224.965 52.0811 227.378 51.4898 229.718 50.7887L229.548 50.223C227.228 50.9183 224.833 51.5051 222.377 51.9914L222.492 52.5707ZM229.718 50.7887C231.619 50.2189 233.473 49.5765 235.27 48.8571L235.051 48.3088C233.271 49.0213 231.434 49.6579 229.548 50.223L229.718 50.7887ZM235.27 48.8571C237.9 47.8049 240.41 46.5878 242.779 45.1918L242.479 44.6831C240.138 46.0626 237.655 47.2668 235.051 48.3088L235.27 48.8571ZM242.779 45.1918C244.596 44.1215 246.329 42.9459 247.969 41.6589L247.604 41.1944C245.986 42.4644 244.274 43.6253 242.479 44.6831L242.779 45.1918ZM247.969 41.6589C250.131 39.9619 252.13 38.0712 253.943 35.9727L253.496 35.5867C251.709 37.6552 249.738 39.5198 247.604 41.1944L247.969 41.6589ZM259.098 28.4924C259.79 27.2129 260.43 25.878 261.013 24.486L260.468 24.2578C259.892 25.632 259.262 26.9493 258.579 28.2114L259.098 28.4924ZM261.013 24.486C261.876 22.4259 262.616 20.241 263.225 17.9256L262.653 17.7756C262.052 20.0653 261.32 22.224 260.468 24.2578L261.013 24.486ZM263.225 17.9256C263.531 16.7612 263.803 15.5639 264.041 14.3329L263.461 14.2208C263.226 15.4394 262.956 16.624 262.653 17.7756L263.225 17.9256ZM264.041 14.3329C264.965 9.55301 265.613 5.14703 266.041 1.03049L265.453 0.969508C265.028 5.068 264.382 9.4569 263.461 14.2208L264.041 14.3329ZM77.0318 1.26166L126.39 27.0726L126.663 26.5493L77.3055 0.738344L77.0318 1.26166ZM126.407 27.0811C146.606 35.9968 188.943 47.413 222.539 43.6649L222.474 43.078C189.016 46.8106 146.787 35.4314 126.646 26.5408L126.407 27.0811ZM222.539 43.6649C225.012 43.389 227.439 43.0308 229.806 42.5833L229.696 42.003C227.345 42.4475 224.933 42.8036 222.474 43.078L222.539 43.6649ZM229.806 42.5833C232.004 42.1677 234.151 41.675 236.238 41.0995L236.081 40.5302C234.011 41.1011 231.88 41.5902 229.696 42.003L229.806 42.5833ZM236.238 41.0995C238.803 40.3921 241.276 39.5594 243.639 38.5907L243.415 38.0443C241.076 39.0032 238.625 39.8285 236.081 40.5302L236.238 41.0995ZM243.639 38.5907C245.71 37.7413 247.698 36.7872 249.588 35.7212L249.298 35.2068C247.431 36.2599 245.465 37.2034 243.415 38.0443L243.639 38.5907ZM249.588 35.7212C251.67 34.547 253.634 33.237 255.463 31.7814L255.095 31.3194C253.292 32.7541 251.354 34.0469 249.298 35.2068L249.588 35.7212ZM255.463 31.7814C256.724 30.7775 257.921 29.7044 259.049 28.559L258.628 28.1448C257.518 29.2726 256.338 30.3298 255.095 31.3194L255.463 31.7814ZM264.024 22.3001C265.386 20.1511 266.559 17.8188 267.523 15.2921L266.971 15.0816C266.021 17.5721 264.866 19.8689 263.525 21.9839L264.024 22.3001ZM267.523 15.2921C268.301 13.252 268.943 11.0855 269.438 8.78702L268.861 8.66265C268.372 10.9331 267.739 13.0706 266.971 15.0816L267.523 15.2921ZM269.438 8.78702C270.019 6.09007 270.521 3.51611 270.952 1.05084L270.37 0.949164C269.941 3.40649 269.441 5.97288 268.861 8.66265L269.438 8.78702ZM96.1434 1.26452L135.685 20.877L135.947 20.3479L96.4058 0.735477L96.1434 1.26452ZM135.707 20.8868C154.259 28.2631 190.8 36.9604 222.154 35.293L222.123 34.7033C190.871 36.3652 154.416 27.6901 135.925 20.3381L135.707 20.8868ZM222.154 35.293C224.649 35.1603 227.112 34.962 229.531 34.692L229.466 34.1051C227.059 34.3737 224.607 34.5712 222.123 34.7033L222.154 35.293ZM229.531 34.692C231.975 34.4192 234.374 34.0734 236.715 33.6482L236.61 33.0672C234.282 33.4897 231.897 33.8337 229.466 34.1051L229.531 34.692ZM236.715 33.6482C239.186 33.1997 241.593 32.6629 243.923 32.0305L243.768 31.4606C241.456 32.0882 239.065 32.6214 236.61 33.0672L236.715 33.6482ZM243.923 32.0305C246.217 31.408 248.436 30.6927 250.566 29.8777L250.355 29.3262C248.245 30.1335 246.045 30.8427 243.768 31.4606L243.923 32.0305ZM250.566 29.8777C252.638 29.0851 254.626 28.1982 256.518 27.2104L256.244 26.6869C254.374 27.6633 252.407 28.541 250.355 29.3262L250.566 29.8777ZM256.518 27.2104C258.045 26.413 259.509 25.5498 260.904 24.6174L260.576 24.1264C259.2 25.0463 257.754 25.8987 256.244 26.6869L256.518 27.2104ZM260.904 24.6174C261.964 23.9092 262.984 23.1611 263.96 22.3716L263.589 21.9124C262.627 22.6902 261.622 23.4277 260.576 24.1264L260.904 24.6174ZM273.67 10.3258C274.857 7.91269 275.802 5.29537 276.48 2.46139L275.905 2.32402C275.237 5.11692 274.307 7.69277 273.14 10.0653L273.67 10.3258ZM276.48 2.46139C276.592 1.99156 276.702 1.52706 276.811 1.06774L276.236 0.932262C276.128 1.39095 276.018 1.85482 275.905 2.32401L276.48 2.46139ZM114.792 1.26482L145.713 16.514L145.974 15.9844L115.053 0.73518L114.792 1.26482ZM145.742 16.5264C163.428 23.0133 193.564 29.4288 221.533 28.2042L221.507 27.6143C193.628 28.8349 163.57 22.4364 145.945 15.972L145.742 16.5264ZM273.61 10.4085C276.437 7.69471 278.913 4.62006 280.971 1.15068L280.463 0.849325C278.433 4.27108 275.991 7.30413 273.201 9.98255L273.61 10.4085Z" fill="url(#paint2_linear_118_41)"/>
<defs>
<linearGradient id="paint0_linear_118_41" x1="152.244" y1="1" x2="242.5" y2="287.5" gradientUnits="userSpaceOnUse">
<stop stop-color="#4784B2"/>
<stop offset="1" stop-color="#334B5E"/>
</linearGradient>
<linearGradient id="paint1_linear_118_41" x1="97.7445" y1="11.3058" x2="218.35" y2="335.428" gradientUnits="userSpaceOnUse">
<stop stop-color="white"/>
<stop offset="1" stop-color="white" stop-opacity="0"/>
</linearGradient>
<linearGradient id="paint2_linear_118_41" x1="105.172" y1="-30.5673" x2="266.5" y2="100.5" gradientUnits="userSpaceOnUse">
<stop stop-color="#6B9DF0"/>
<stop offset="0.373261" stop-color="#DAE0EB"/>
<stop offset="1" stop-color="#303B5B"/>
<stop offset="1" stop-color="#708EC1"/>
</linearGradient>
</defs>
</svg>
