<svg width="74" height="74" viewBox="0 0 74 74" fill="none" xmlns="http://www.w3.org/2000/svg">
<rect x="0.925459" y="0.925459" width="71.5536" height="71.5536" rx="22.211" fill="url(#paint0_linear_118_49)" stroke="url(#paint1_linear_118_49)" stroke-width="1.85092"/>
<rect x="5.60175" y="5.60175" width="62.2738" height="62.2738" rx="14.6917" fill="url(#paint2_linear_118_49)"/>
<g style="mix-blend-mode:overlay">
<path fill-rule="evenodd" clip-rule="evenodd" d="M21.3706 51.3613L18.8507 53.8813C18.089 53.09 17.3794 52.2482 16.7275 51.3613H21.3706ZM22.0432 50.6888L21.949 50.7829H16.3149C13.5482 46.7845 11.9273 41.9327 11.9273 36.7023L11.9274 36.6659H22.0432V50.6888ZM22.0432 51.5068L19.2566 54.2933C20.1246 55.1542 21.056 55.9513 22.0432 56.677V51.5068ZM18.4416 54.2904L4.75619 67.9758L5.16519 68.3848L18.8476 54.7023C19.8361 55.6828 20.9048 56.5825 22.0432 57.3905L22.0432 72.2405H22.6216V57.7892C26.6493 60.4841 31.4922 62.0556 36.7022 62.0556L36.7386 62.0555V72.2405H37.317V62.0482C42.5753 61.9231 47.4372 60.197 51.434 57.3387V72.2405H52.0124V56.9126C53.0049 56.1596 53.9402 55.3352 54.8107 54.447L68.312 67.9483L68.721 67.5393L55.2109 54.0292C55.9957 53.1912 56.7242 52.2999 57.3905 51.3613H72.2404V50.7829H57.7892C60.484 46.7552 62.0555 41.9122 62.0555 36.7023L62.0555 36.6659H72.2404V36.0875H62.0482C61.9231 30.8292 60.197 25.9673 57.3387 21.9704L72.2404 21.9704V21.392H56.9125C56.2322 20.4954 55.4936 19.6454 54.7023 18.8477L68.312 5.23799L67.903 4.82899L54.2903 18.4417C53.5706 17.7483 52.81 17.097 52.0124 16.4919L52.0124 1.164L51.434 1.164L51.434 16.0658C47.4372 13.2075 42.5753 11.4814 37.317 11.3563L37.317 1.164L36.7386 1.164L36.7386 11.349L36.7022 11.349C31.4922 11.349 26.6493 12.9205 22.6216 15.6153L22.6216 1.164L22.0432 1.164L22.0432 16.014C21.1046 16.6803 20.2133 17.4088 19.3753 18.1936L5.5742 4.3925L5.1652 4.8015L18.9575 18.5938C18.0693 19.4643 17.2449 20.3996 16.4919 21.392H1.16394L1.16394 21.9704L16.0658 21.9704C13.2074 25.9673 11.4814 30.8292 11.3562 36.0875H1.16394L1.16394 36.6659H11.3489L11.3489 36.7023C11.3489 41.9122 12.9204 46.7552 15.6153 50.7829H1.16394L1.16394 51.3613H16.0139C16.7499 52.3981 17.5618 53.3771 18.4416 54.2904ZM53.8812 18.8507C53.2861 18.2779 52.6624 17.7345 52.0124 17.2229V20.7196L53.8812 18.8507ZM51.434 21.298L51.3399 21.392H37.317V11.9349C42.5983 12.0635 47.4698 13.8448 51.434 16.7812V21.298ZM50.7615 21.9704L37.317 35.415V21.9704H50.7615ZM37.4625 36.0875L51.434 22.116V36.0875H37.4625ZM36.7386 36.8114V50.7829L22.767 50.7829L36.7386 36.8114ZM36.0661 36.6659L22.6216 50.1104V36.6659L36.0661 36.6659ZM52.1579 21.392L54.2933 19.2567C54.9624 19.9314 55.593 20.6443 56.1815 21.392H52.1579ZM56.6769 51.3613C56.0963 52.1512 55.4699 52.9054 54.8017 53.62L52.543 51.3613H56.6769ZM54.4016 54.0379L52.0124 51.6487V56.1816C52.8546 55.5188 53.6527 54.8025 54.4016 54.0379ZM51.434 36.6659V50.2523L37.8476 36.6659H51.434ZM51.1466 50.7829L37.317 36.9533V50.7829H51.1466ZM36.7386 21.9704V35.5569L23.1521 21.9704H36.7386ZM36.4512 36.0875L22.6216 22.2579V36.0875L36.4512 36.0875ZM22.0432 16.7276V20.8615L19.7845 18.6028C20.4991 17.9346 21.2533 17.3082 22.0432 16.7276ZM21.7557 21.392L19.3665 19.0028C18.602 19.7518 17.8857 20.5499 17.2229 21.392H21.7557ZM11.9348 36.0875H22.0432V21.9704H16.7812C13.8447 25.9347 12.0634 30.8062 11.9348 36.0875ZM22.6216 16.315V21.392L36.7386 21.392V11.9274L36.7022 11.9274C31.4718 11.9274 26.62 13.5482 22.6216 16.315ZM56.6232 21.9704H52.0124V36.0875H61.4696C61.341 30.8062 59.5597 25.9347 56.6232 21.9704ZM61.4771 36.6659H52.0124V50.7829H57.0895C59.8563 46.7845 61.4771 41.9327 61.4771 36.7023L61.4771 36.6659ZM51.434 56.6233V51.3613H37.317V61.4697C42.5983 61.341 47.4698 59.5598 51.434 56.6233ZM36.7386 61.4771V51.3613L22.6216 51.3613V57.0896C26.62 59.8563 31.4718 61.4771 36.7022 61.4771L36.7386 61.4771Z" fill="white" fill-opacity="0.4"/>
</g>
<g opacity="0.85" clip-path="url(#clip0_118_49)">
<path d="M58.8155 26.344C58.8152 25.5168 58.6388 24.7859 58.2822 24.1588C57.9318 23.5418 57.4072 23.0248 56.7035 22.616C50.8945 19.2562 45.08 15.9068 39.2729 12.5436C37.7073 11.637 36.1894 11.6702 34.6355 12.5898C32.3233 13.9574 20.7473 20.61 17.2978 22.6141C15.8772 23.4392 15.1859 24.7017 15.1856 26.3424C15.1833 33.0991 15.1856 39.8558 15.1833 46.6125C15.1833 47.4215 15.3525 48.1383 15.6935 48.756C16.044 49.3915 16.576 49.9228 17.2959 50.3408C20.7456 52.3449 32.3232 58.997 34.6348 60.3651C36.1894 61.2852 37.7073 61.3181 39.2734 60.4113C45.0806 57.048 50.8956 53.6985 56.7054 50.3387C57.4253 49.9209 57.9573 49.3893 58.3078 48.7543C58.6482 48.1364 58.8177 47.4198 58.8177 46.6106C58.8177 46.6106 58.8177 33.1008 58.8155 26.344Z" fill="#A179DC"/>
<path d="M37.0673 36.4116L15.6935 48.756C16.044 49.3916 16.576 49.9228 17.2959 50.3408C20.7456 52.3449 32.3232 58.997 34.6348 60.3651C36.1894 61.2852 37.7074 61.3181 39.2734 60.4114C45.0807 57.048 50.8956 53.6985 56.7054 50.3387C57.4253 49.9209 57.9573 49.3893 58.3078 48.7543L37.0673 36.4116Z" fill="#280068"/>
<path d="M58.8155 26.344C58.8152 25.5168 58.6388 24.7859 58.2822 24.1588L37.0673 36.4118L58.3078 48.7543C58.6482 48.1364 58.8174 47.4198 58.8178 46.6106C58.8178 46.6106 58.8178 33.1008 58.8155 26.344Z" fill="#390091"/>
<path d="M49.6515 31.7969V34.1043H51.9518V31.7969H53.102V34.1043H55.4024V35.258H53.102V37.5653H55.4024V38.719H53.102V41.0264H51.9518V38.719H49.6515V41.0264H48.5013V38.719H46.2011V37.5653H48.5013V35.258H46.2011V34.1043H48.5013V31.7969H49.6515ZM51.9518 35.2578H49.6515V37.5653H51.9518V35.2578Z" fill="white"/>
<path d="M37.1142 20.2087C43.1142 20.2087 48.3526 23.4772 51.1585 28.3356L51.1312 28.2888L44.0717 32.366C42.6809 30.0039 40.1313 28.4097 37.2063 28.3769L37.1141 28.3763C32.6539 28.3763 29.0379 32.0034 29.0379 36.4774C29.0364 37.8875 29.4037 39.2733 30.1031 40.4966C31.4952 42.9344 34.1122 44.5785 37.1142 44.5785C40.1349 44.5785 42.7668 42.9135 44.1517 40.4497L44.1181 40.5088L51.1668 44.6047C48.3917 49.422 43.225 52.6804 37.2949 52.7453L37.1142 52.7463C31.0953 52.7463 25.8421 49.4576 23.0432 44.5736C21.6769 42.1892 20.8951 39.4251 20.8951 36.4774C20.8951 27.4925 28.1564 20.2086 37.1141 20.2086L37.1142 20.2087Z" fill="white"/>
</g>
<defs>
<linearGradient id="paint0_linear_118_49" x1="63.8015" y1="-3.2709e-07" x2="21.3157" y2="36.7386" gradientUnits="userSpaceOnUse">
<stop stop-color="#79AEE7"/>
<stop offset="0.331593" stop-color="#4960A7"/>
<stop offset="1" stop-color="#1B2030"/>
</linearGradient>
<linearGradient id="paint1_linear_118_49" x1="64.6018" y1="3.38287" x2="13.0586" y2="54.0531" gradientUnits="userSpaceOnUse">
<stop stop-color="#EBF8FC"/>
<stop offset="0.295134" stop-color="#7FB8EF"/>
<stop offset="0.57639" stop-color="#5142F1"/>
<stop offset="1" stop-color="#1D1D29"/>
</linearGradient>
<linearGradient id="paint2_linear_118_49" x1="57.7633" y1="12.0037" x2="31.8644" y2="49.1061" gradientUnits="userSpaceOnUse">
<stop stop-color="#2A0C61"/>
<stop offset="0.56875" stop-color="#6B607D" stop-opacity="0.71"/>
<stop offset="1" stop-color="#251A44"/>
</linearGradient>
<clipPath id="clip0_118_49">
<rect width="44.0213" height="49.6811" fill="white" transform="translate(14.9899 11.637)"/>
</clipPath>
</defs>
</svg>
