<svg width="74" height="75" viewBox="0 0 74 75" fill="none" xmlns="http://www.w3.org/2000/svg">
<rect x="1.33943" y="1.74284" width="71.5536" height="71.5536" rx="22.211" fill="url(#paint0_linear_113_6)" stroke="url(#paint1_linear_113_6)" stroke-width="1.85092"/>
<rect x="6.01569" y="6.41911" width="62.2738" height="62.2738" rx="14.6917" fill="url(#paint2_linear_113_6)"/>
<g style="mix-blend-mode:overlay">
<path fill-rule="evenodd" clip-rule="evenodd" d="M21.7846 52.1787L19.2647 54.6987C18.503 53.9074 17.7934 53.0655 17.1415 52.1787H21.7846ZM22.4572 51.5062L22.3631 51.6003H16.7289C13.9622 47.6019 12.3413 42.7501 12.3413 37.5196L12.3414 37.4833H22.4572V51.5062ZM22.4572 52.3242L19.6706 55.1107C20.5386 55.9716 21.47 56.7687 22.4572 57.4943V52.3242ZM18.8556 55.1077L5.1702 68.7932L5.57919 69.2022L19.2616 55.5197C20.2501 56.5002 21.3188 57.3999 22.4572 58.2079L22.4572 73.0579H23.0356V58.6066C27.0633 61.3014 31.9062 62.8729 37.1162 62.8729L37.1526 62.8729V73.0579H37.731V62.8656C42.9893 62.7405 47.8512 61.0144 51.848 58.1561V73.0579H52.4264V57.73C53.4189 56.977 54.3542 56.1525 55.2247 55.2643L68.726 68.7657L69.135 68.3567L55.6249 54.8466C56.4097 54.0086 57.1382 53.1173 57.8045 52.1787H72.6544V51.6003H58.2032C60.898 47.5726 62.4695 42.7296 62.4695 37.5196L62.4695 37.4833H72.6544V36.9049H62.4622C62.3371 31.6466 60.611 26.7847 57.7527 22.7878L72.6544 22.7878V22.2094H57.3265C56.6462 21.3127 55.9076 20.4627 55.1163 19.6651L68.726 6.05537L68.317 5.64637L54.7043 19.259C53.9846 18.5657 53.224 17.9144 52.4264 17.3093L52.4264 1.98138L51.848 1.98138L51.848 16.8832C47.8512 14.0249 42.9893 12.2988 37.731 12.1737L37.731 1.98138L37.1526 1.98138L37.1526 12.1664L37.1162 12.1664C31.9062 12.1664 27.0633 13.7379 23.0356 16.4327L23.0356 1.98138L22.4572 1.98138L22.4572 16.8314C21.5186 17.4976 20.6273 18.2262 19.7893 19.011L5.9882 5.20988L5.5792 5.61888L19.3715 19.4112C18.4833 20.2817 17.6589 21.217 16.9059 22.2094H1.57794L1.57794 22.7878L16.4798 22.7878C13.6214 26.7847 11.8954 31.6466 11.7702 36.9049H1.57794L1.57794 37.4833H11.7629L11.7629 37.5196C11.7629 42.7296 13.3344 47.5726 16.0293 51.6003H1.57794L1.57794 52.1787H16.4279C17.1639 53.2155 17.9758 54.1945 18.8556 55.1077ZM54.2952 19.6681C53.7001 19.0953 53.0764 18.5519 52.4264 18.0403V21.5369L54.2952 19.6681ZM51.848 22.1153L51.7539 22.2094H37.731V12.7522C43.0123 12.8809 47.8838 14.6622 51.848 17.5986V22.1153ZM51.1755 22.7878L37.731 36.2323V22.7878H51.1755ZM37.8765 36.9049L51.848 22.9333V36.9049H37.8765ZM37.1526 37.6288V51.6003L23.181 51.6003L37.1526 37.6288ZM36.4801 37.4833L23.0356 50.9278V37.4833L36.4801 37.4833ZM52.5719 22.2094L54.7073 20.0741C55.3764 20.7487 56.007 21.4617 56.5955 22.2094H52.5719ZM57.0909 52.1787C56.5103 52.9686 55.8839 53.7228 55.2157 54.4374L52.957 52.1787H57.0909ZM54.8156 54.8553L52.4264 52.4661V56.999C53.2686 56.3362 54.0667 55.6199 54.8156 54.8553ZM51.848 37.4833V51.0697L38.2616 37.4833H51.848ZM51.5606 51.6003L37.731 37.7707V51.6003H51.5606ZM37.1526 22.7878V36.3743L23.5661 22.7878H37.1526ZM36.8652 36.9049L23.0356 23.0753V36.9049L36.8652 36.9049ZM22.4572 17.5449V21.6788L20.1985 19.4202C20.9131 18.752 21.6673 18.1256 22.4572 17.5449ZM22.1697 22.2094L19.7805 19.8202C19.016 20.5692 18.2997 21.3673 17.6369 22.2094H22.1697ZM12.3488 36.9049H22.4572V22.7878H17.1952C14.2587 26.7521 12.4774 31.6236 12.3488 36.9049ZM23.0356 17.1324V22.2094L37.1526 22.2094V12.7448L37.1162 12.7448C31.8858 12.7448 27.034 14.3656 23.0356 17.1324ZM57.0372 22.7878H52.4264V36.9049H61.8836C61.755 31.6236 59.9737 26.7521 57.0372 22.7878ZM61.8911 37.4833H52.4264V51.6003H57.5035C60.2703 47.6019 61.8911 42.7501 61.8911 37.5196L61.8911 37.4833ZM51.848 57.4407V52.1787H37.731V62.287C43.0123 62.1584 47.8838 60.3771 51.848 57.4407ZM37.1526 62.2945V52.1787L23.0356 52.1787V57.9069C27.034 60.6737 31.8858 62.2945 37.1162 62.2945L37.1526 62.2945Z" fill="white" fill-opacity="0.4"/>
</g>
<g opacity="0.85" clip-path="url(#clip0_113_6)">
<path d="M36.8116 16.0127C25.6697 16.0127 26.3654 20.9742 26.3654 20.9742L26.3777 26.1144H37.0103V27.6577H22.1546C22.1546 27.6577 15.0249 26.8274 15.0249 38.3712C15.0249 49.9154 21.2479 49.5059 21.2479 49.5059H24.9618V44.149C24.9618 44.149 24.7616 37.759 31.0855 37.759H41.6311C41.6311 37.759 47.5559 37.8573 47.5559 31.8792V21.9947C47.5559 21.9947 48.4557 16.0127 36.8116 16.0127ZM30.9488 19.4694C31.2001 19.4692 31.4489 19.5198 31.6811 19.6185C31.9133 19.7171 32.1242 19.8617 32.3019 20.0442C32.4795 20.2266 32.6204 20.4432 32.7165 20.6816C32.8125 20.92 32.8618 21.1755 32.8616 21.4335C32.8618 21.6915 32.8125 21.947 32.7165 22.1854C32.6204 22.4238 32.4795 22.6405 32.3019 22.8229C32.1242 23.0053 31.9133 23.15 31.6811 23.2486C31.4489 23.3472 31.2001 23.3979 30.9488 23.3977C30.6976 23.3979 30.4487 23.3472 30.2166 23.2486C29.9844 23.15 29.7734 23.0053 29.5958 22.8229C29.4181 22.6405 29.2772 22.4238 29.1812 22.1854C29.0851 21.947 29.0358 21.6915 29.036 21.4335C29.0358 21.1755 29.0851 20.92 29.1812 20.6816C29.2772 20.4432 29.4181 20.2266 29.5958 20.0442C29.7734 19.8617 29.9844 19.7171 30.2166 19.6185C30.4487 19.5198 30.6976 19.4692 30.9488 19.4694Z" fill="url(#paint3_linear_113_6)"/>
<path d="M37.1281 60.8458C48.27 60.8458 47.5743 55.8843 47.5743 55.8843L47.5619 50.7442H36.9292V49.201H51.7849C51.7849 49.201 58.9146 50.0313 58.9146 38.4871C58.9146 26.9431 52.6916 27.3525 52.6916 27.3525H48.9777V32.7093C48.9777 32.7093 49.1779 39.0993 42.854 39.0993H32.3084C32.3084 39.0993 26.3836 39.001 26.3836 44.9793V54.8639C26.3836 54.8639 25.4839 60.8458 37.1279 60.8458H37.1281ZM42.9908 57.3894C42.7396 57.3896 42.4908 57.339 42.2586 57.2404C42.0264 57.1418 41.8155 56.9971 41.6378 56.8147C41.4601 56.6322 41.3192 56.4156 41.2232 56.1772C41.1272 55.9388 41.0778 55.6833 41.0781 55.4253C41.0778 55.1673 41.1271 54.9118 41.2231 54.6733C41.3192 54.4349 41.4601 54.2183 41.6377 54.0358C41.8154 53.8534 42.0264 53.7087 42.2585 53.6101C42.4907 53.5114 42.7396 53.4608 42.9908 53.461C43.2421 53.4608 43.4909 53.5114 43.7231 53.61C43.9553 53.7087 44.1662 53.8533 44.3439 54.0358C44.5216 54.2182 44.6624 54.4348 44.7585 54.6732C44.8545 54.9116 44.9039 55.1671 44.9036 55.4251C44.9039 55.6831 44.8545 55.9386 44.7585 56.177C44.6624 56.4154 44.5216 56.632 44.3439 56.8145C44.1662 56.9969 43.9553 57.1416 43.7231 57.2402C43.4909 57.3388 43.2421 57.3896 42.9908 57.3894Z" fill="url(#paint4_linear_113_6)"/>
</g>
<defs>
<linearGradient id="paint0_linear_113_6" x1="64.2155" y1="0.817382" x2="21.7297" y2="37.556" gradientUnits="userSpaceOnUse">
<stop stop-color="#99D1FF"/>
<stop offset="0.331593" stop-color="#C1E3FF"/>
<stop offset="1" stop-color="white"/>
</linearGradient>
<linearGradient id="paint1_linear_113_6" x1="65.0158" y1="4.20025" x2="13.4726" y2="54.8705" gradientUnits="userSpaceOnUse">
<stop stop-color="#EBF8FC"/>
<stop offset="0.295134" stop-color="#7FB8EF"/>
<stop offset="0.57639" stop-color="#ECD463"/>
<stop offset="1" stop-color="#797565"/>
</linearGradient>
<linearGradient id="paint2_linear_113_6" x1="58.1773" y1="12.8211" x2="32.2783" y2="49.9235" gradientUnits="userSpaceOnUse">
<stop stop-color="#7799BA"/>
<stop offset="0.56875" stop-color="#95AFC2"/>
<stop offset="1" stop-color="#A69A66"/>
</linearGradient>
<linearGradient id="paint3_linear_113_6" x1="436.803" y1="419.259" x2="2668.83" y2="2571.27" gradientUnits="userSpaceOnUse">
<stop stop-color="#387EB8"/>
<stop offset="1" stop-color="#366994"/>
</linearGradient>
<linearGradient id="paint4_linear_113_6" x1="648.928" y1="716.645" x2="3042.95" y2="2920.64" gradientUnits="userSpaceOnUse">
<stop stop-color="#FFE052"/>
<stop offset="1" stop-color="#FFC331"/>
</linearGradient>
<clipPath id="clip0_113_6">
<rect width="44" height="45" fill="white" transform="translate(15 16)"/>
</clipPath>
</defs>
</svg>
