<svg width="1701" height="759" viewBox="0 0 1701 759" fill="none" xmlns="http://www.w3.org/2000/svg">
<g filter="url(#filter0_f_119_252)">
<circle cx="525.531" cy="247.668" r="63.4685" fill="#A2C6D2" fill-opacity="0.5"/>
</g>
<g filter="url(#filter1_f_119_252)">
<ellipse cx="471.27" cy="190.468" rx="108.719" ry="63.4685" fill="#86A8E6" fill-opacity="0.4"/>
</g>
<g filter="url(#filter2_d_119_252)">
<rect x="160" y="184.2" width="395.307" height="395.307" rx="78.3562" fill="url(#paint0_linear_119_252)"/>
<rect x="163.134" y="187.334" width="389.038" height="389.038" rx="75.2219" stroke="url(#paint1_linear_119_252)" stroke-width="6.26849"/>
</g>
<rect x="190.167" y="214.367" width="335.364" height="335.364" rx="49.7562" fill="url(#paint2_linear_119_252)"/>
<g style="mix-blend-mode:overlay">
<path fill-rule="evenodd" clip-rule="evenodd" d="M276.723 460.797L261.505 476.015C256.859 471.271 252.56 466.185 248.652 460.797H276.723ZM278.71 458.811L278.682 458.838H247.257C232.017 437.024 223.077 410.483 223.077 381.853L223.077 381.658H278.71V458.811ZM278.71 461.581L262.886 477.404C267.802 482.28 273.092 486.78 278.71 490.855V461.581ZM260.12 477.4L186.431 551.089L187.817 552.474L261.501 478.79C266.824 484.07 272.579 488.915 278.71 493.266L278.71 573.238H280.669L280.669 494.631C302.586 509.622 329.096 518.389 357.653 518.389L357.849 518.389V573.238H359.808V518.372C388.569 517.927 415.172 508.59 436.989 492.987V573.238H438.948V491.56C444.724 487.273 450.149 482.541 455.173 477.414L527.882 550.123L529.267 548.738L456.535 476.005C461.064 471.249 465.255 466.167 469.066 460.797H549.038V458.838H470.431C485.422 436.921 494.189 410.411 494.189 381.853L494.189 381.658H549.038V379.699H494.172C493.727 350.938 484.39 324.335 468.787 302.518L549.038 302.518V300.559L467.36 300.559C463.459 295.303 459.19 290.338 454.59 285.701L527.882 212.408L526.497 211.023L453.2 284.32C448.737 279.947 443.975 275.878 438.948 272.147V190.468H436.989L436.989 270.72C415.172 255.117 388.569 245.779 359.808 245.334V190.468H357.849V245.318L357.653 245.318C329.096 245.318 302.586 254.085 280.669 269.075L280.669 190.468H278.71L278.71 270.44C273.34 274.252 268.258 278.442 263.502 282.972L189.202 208.672L187.817 210.058L262.093 284.334C256.966 289.358 252.234 294.783 247.947 300.559L166.269 300.559L166.269 302.518L246.52 302.518C230.917 324.335 221.58 350.938 221.135 379.699H166.269L166.269 381.658H221.118L221.118 381.853C221.118 410.411 229.885 436.921 244.876 458.838H166.269L166.269 460.797H246.241C250.428 466.696 255.071 472.247 260.12 477.4ZM451.815 285.705C447.767 281.74 443.469 278.029 438.948 274.596V298.572L451.815 285.705ZM436.989 300.531L436.961 300.559H359.808V247.294C388.647 247.746 415.283 257.27 436.989 273.137V300.531ZM435.002 302.518L359.808 377.712V302.518H435.002ZM360.592 379.699L436.989 303.301V379.699H360.592ZM357.849 382.441V458.838H281.452L357.849 382.441ZM355.863 381.658L280.669 456.852V381.658L355.863 381.658ZM439.732 300.559L453.205 287.086C457.395 291.31 461.307 295.811 464.911 300.559H439.732ZM466.655 460.797C463.127 465.66 459.282 470.278 455.149 474.62L441.327 460.797H466.655ZM453.788 476.029L438.948 461.189V489.11C444.211 485.115 449.171 480.741 453.788 476.029ZM438.948 458.419L439.368 458.838H468.05C483.29 437.024 492.23 410.483 492.23 381.853L492.23 381.658H438.948V458.419ZM362.187 381.658L436.989 456.46V381.658H362.187ZM436.597 458.838L359.808 382.049V458.838H436.597ZM283.047 302.518L357.849 377.32V302.518H283.047ZM357.458 379.699L280.669 302.91V379.699L357.458 379.699ZM280.669 300.139L281.088 300.559H357.849V247.277L357.653 247.277C329.024 247.277 302.483 256.217 280.669 271.457V300.139ZM264.887 284.358L278.71 298.18V272.852C273.847 276.38 269.229 280.225 264.887 284.358ZM278.318 300.559L263.478 285.719C258.766 290.335 254.392 295.296 250.396 300.559H278.318ZM223.094 379.699H278.71V302.518H248.937C233.07 324.224 223.546 350.86 223.094 379.699ZM466.37 302.518H438.948V379.699H492.213C491.761 350.86 482.237 324.224 466.37 302.518ZM436.989 490.57V460.797H359.808V516.413C388.647 515.961 415.283 506.437 436.989 490.57ZM357.849 516.43V460.797L280.669 460.797V492.25C302.483 507.49 329.024 516.43 357.653 516.43L357.849 516.43Z" fill="white" fill-opacity="0.4"/>
</g>
<g clip-path="url(#clip0_119_252)">
<mask id="mask0_119_252" style="mask-type:luminance" maskUnits="userSpaceOnUse" x="244" y="267" width="227" height="227">
<path d="M471 267H244V494H471V267Z" fill="white"/>
</mask>
<g mask="url(#mask0_119_252)">
<path d="M263.008 470.222L244 267.379L471 267.787L450.901 470.222L358.357 493.621L263.008 470.222Z" fill="#E9CA32"/>
<path d="M358.356 474.031V286.697L451.837 286.969L435.166 454.575L358.356 474.031Z" fill="#FFDE25"/>
<path d="M348.347 308.941H323.633V433.625L304.412 430.428V413.644L281.528 410.447V448.012L348.347 463.198V308.941ZM366.886 308.941H435.303L430.726 332.838H393.004V372.055H430.726L426.149 451.209L366.886 463.198V438.421L406.928 426.432L409.24 393.662L366.886 399.017V308.941Z" fill="white"/>
</g>
</g>
<g filter="url(#filter3_f_119_252)">
<circle cx="495.365" cy="524.266" r="63.4685" fill="#483CC9" fill-opacity="0.6"/>
</g>
<g filter="url(#filter4_f_119_252)">
<circle cx="1018.53" cy="247.668" r="63.4685" fill="#A2C6D2" fill-opacity="0.5"/>
</g>
<g filter="url(#filter5_f_119_252)">
<ellipse cx="964.27" cy="190.468" rx="108.719" ry="63.4685" fill="#86A8E6" fill-opacity="0.4"/>
</g>
<g filter="url(#filter6_d_119_252)">
<rect x="653" y="184.2" width="395.307" height="395.307" rx="78.3562" fill="url(#paint3_linear_119_252)"/>
<rect x="656.134" y="187.334" width="389.038" height="389.038" rx="75.2219" stroke="url(#paint4_linear_119_252)" stroke-width="6.26849"/>
</g>
<rect x="683.167" y="214.367" width="335.364" height="335.364" rx="49.7562" fill="url(#paint5_linear_119_252)"/>
<g style="mix-blend-mode:overlay">
<path fill-rule="evenodd" clip-rule="evenodd" d="M769.723 460.797L754.505 476.015C749.859 471.271 745.56 466.185 741.652 460.797H769.723ZM771.71 458.811L771.682 458.838H740.257C725.017 437.024 716.077 410.483 716.077 381.853L716.077 381.658H771.71V458.811ZM771.71 461.581L755.886 477.404C760.802 482.28 766.092 486.78 771.71 490.855V461.581ZM753.12 477.4L679.431 551.089L680.817 552.474L754.501 478.79C759.824 484.07 765.579 488.915 771.71 493.266L771.71 573.238H773.669L773.669 494.631C795.586 509.622 822.096 518.389 850.653 518.389L850.849 518.389V573.238H852.808V518.372C881.569 517.927 908.172 508.59 929.989 492.987V573.238H931.948V491.56C937.724 487.273 943.149 482.541 948.173 477.414L1020.88 550.123L1022.27 548.738L949.535 476.005C954.064 471.249 958.255 466.167 962.066 460.797H1042.04V458.838H963.431C978.422 436.921 987.189 410.411 987.189 381.853L987.189 381.658H1042.04V379.699H987.172C986.727 350.938 977.39 324.335 961.787 302.518L1042.04 302.518V300.559L960.36 300.559C956.459 295.303 952.19 290.338 947.59 285.701L1020.88 212.408L1019.5 211.023L946.2 284.32C941.737 279.947 936.975 275.878 931.948 272.147V190.468H929.989L929.989 270.72C908.172 255.117 881.569 245.779 852.808 245.334V190.468H850.849V245.318L850.653 245.318C822.096 245.318 795.586 254.085 773.669 269.075L773.669 190.468H771.71L771.71 270.44C766.34 274.252 761.258 278.442 756.502 282.972L682.202 208.672L680.817 210.058L755.093 284.334C749.966 289.358 745.234 294.783 740.947 300.559L659.269 300.559L659.269 302.518L739.52 302.518C723.917 324.335 714.58 350.938 714.135 379.699H659.269L659.269 381.658H714.118L714.118 381.853C714.118 410.411 722.885 436.921 737.876 458.838H659.269L659.269 460.797H739.241C743.428 466.696 748.071 472.247 753.12 477.4ZM944.815 285.705C940.767 281.74 936.469 278.029 931.948 274.596V298.572L944.815 285.705ZM929.989 300.531L929.961 300.559H852.808V247.294C881.647 247.746 908.283 257.27 929.989 273.137V300.531ZM928.002 302.518L852.808 377.712V302.518H928.002ZM853.592 379.699L929.989 303.301V379.699H853.592ZM850.849 382.441V458.838H774.452L850.849 382.441ZM848.863 381.658L773.669 456.852V381.658L848.863 381.658ZM932.732 300.559L946.205 287.086C950.395 291.31 954.307 295.811 957.911 300.559H932.732ZM959.655 460.797C956.127 465.66 952.282 470.278 948.149 474.62L934.327 460.797H959.655ZM946.788 476.029L931.948 461.189V489.11C937.211 485.115 942.171 480.741 946.788 476.029ZM931.948 458.419L932.368 458.838H961.05C976.29 437.024 985.23 410.483 985.23 381.853L985.23 381.658H931.948V458.419ZM855.187 381.658L929.989 456.46V381.658H855.187ZM929.597 458.838L852.808 382.049V458.838H929.597ZM776.047 302.518L850.849 377.32V302.518H776.047ZM850.458 379.699L773.669 302.91V379.699L850.458 379.699ZM773.669 300.139L774.088 300.559H850.849V247.277L850.653 247.277C822.024 247.277 795.483 256.217 773.669 271.457V300.139ZM757.887 284.358L771.71 298.18V272.852C766.847 276.38 762.229 280.225 757.887 284.358ZM771.318 300.559L756.478 285.719C751.766 290.335 747.392 295.296 743.396 300.559H771.318ZM716.094 379.699H771.71V302.518H741.937C726.07 324.224 716.546 350.86 716.094 379.699ZM959.37 302.518H931.948V379.699H985.213C984.761 350.86 975.237 324.224 959.37 302.518ZM929.989 490.57V460.797H852.808V516.413C881.647 515.961 908.283 506.437 929.989 490.57ZM850.849 516.43V460.797L773.669 460.797V492.25C795.483 507.49 822.024 516.43 850.653 516.43L850.849 516.43Z" fill="white" fill-opacity="0.4"/>
</g>
<g clip-path="url(#clip1_119_252)">
<path d="M756.008 470.222L737 267.379L964 267.787L943.901 470.222L851.357 493.621L756.008 470.222Z" fill="#E34F26"/>
<path d="M851.357 474.031V286.697L944.837 286.969L928.167 454.575L851.357 474.031Z" fill="#EF652A"/>
<path d="M919.131 333.497L921.778 308.736H777.975L785.92 384.65H885.165L881.273 417.028L849.489 424.509L817.239 416.347L815.525 397.029H787.011L790.907 436.482L849.487 450.766L908.535 436.482L916.48 359.481H812.252L809.292 333.497H919.131Z" fill="white"/>
</g>
<g filter="url(#filter7_f_119_252)">
<circle cx="988.365" cy="524.266" r="63.4685" fill="#483CC9" fill-opacity="0.6"/>
</g>
<g filter="url(#filter8_f_119_252)">
<circle cx="1511.53" cy="247.668" r="63.4685" fill="#A2C6D2" fill-opacity="0.5"/>
</g>
<g filter="url(#filter9_f_119_252)">
<ellipse cx="1457.27" cy="190.468" rx="108.719" ry="63.4685" fill="#86A8E6" fill-opacity="0.4"/>
</g>
<g filter="url(#filter10_d_119_252)">
<rect x="1146" y="184.2" width="395.307" height="395.307" rx="78.3562" fill="url(#paint6_linear_119_252)"/>
<rect x="1149.13" y="187.334" width="389.038" height="389.038" rx="75.2219" stroke="url(#paint7_linear_119_252)" stroke-width="6.26849"/>
</g>
<rect x="1176.17" y="214.367" width="335.364" height="335.364" rx="49.7562" fill="url(#paint8_linear_119_252)"/>
<g style="mix-blend-mode:overlay">
<path fill-rule="evenodd" clip-rule="evenodd" d="M1262.72 460.797L1247.51 476.015C1242.86 471.271 1238.56 466.185 1234.65 460.797H1262.72ZM1264.71 458.811L1264.68 458.838H1233.26C1218.02 437.024 1209.08 410.483 1209.08 381.853L1209.08 381.658H1264.71V458.811ZM1264.71 461.581L1248.89 477.404C1253.8 482.28 1259.09 486.78 1264.71 490.855V461.581ZM1246.12 477.4L1172.43 551.089L1173.82 552.474L1247.5 478.79C1252.82 484.07 1258.58 488.915 1264.71 493.266L1264.71 573.238H1266.67L1266.67 494.631C1288.59 509.622 1315.1 518.389 1343.65 518.389L1343.85 518.389V573.238H1345.81V518.372C1374.57 517.927 1401.17 508.59 1422.99 492.987V573.238H1424.95V491.56C1430.72 487.273 1436.15 482.541 1441.17 477.414L1513.88 550.123L1515.27 548.738L1442.53 476.005C1447.06 471.249 1451.25 466.167 1455.07 460.797H1535.04V458.838H1456.43C1471.42 436.921 1480.19 410.411 1480.19 381.853L1480.19 381.658H1535.04V379.699H1480.17C1479.73 350.938 1470.39 324.335 1454.79 302.518L1535.04 302.518V300.559L1453.36 300.559C1449.46 295.303 1445.19 290.338 1440.59 285.701L1513.88 212.408L1512.5 211.023L1439.2 284.32C1434.74 279.947 1429.98 275.878 1424.95 272.147V190.468H1422.99L1422.99 270.72C1401.17 255.117 1374.57 245.779 1345.81 245.334V190.468H1343.85V245.318L1343.65 245.318C1315.1 245.318 1288.59 254.085 1266.67 269.075L1266.67 190.468H1264.71L1264.71 270.44C1259.34 274.252 1254.26 278.442 1249.5 282.972L1175.2 208.672L1173.82 210.058L1248.09 284.334C1242.97 289.358 1238.23 294.783 1233.95 300.559L1152.27 300.559L1152.27 302.518L1232.52 302.518C1216.92 324.335 1207.58 350.938 1207.13 379.699H1152.27L1152.27 381.658H1207.12L1207.12 381.853C1207.12 410.411 1215.89 436.921 1230.88 458.838H1152.27L1152.27 460.797H1232.24C1236.43 466.696 1241.07 472.247 1246.12 477.4ZM1437.82 285.705C1433.77 281.74 1429.47 278.029 1424.95 274.596V298.572L1437.82 285.705ZM1422.99 300.531L1422.96 300.559H1345.81V247.294C1374.65 247.746 1401.28 257.27 1422.99 273.137V300.531ZM1421 302.518L1345.81 377.712V302.518H1421ZM1346.59 379.699L1422.99 303.301V379.699H1346.59ZM1343.85 382.441V458.838H1267.45L1343.85 382.441ZM1341.86 381.658L1266.67 456.852V381.658L1341.86 381.658ZM1425.73 300.559L1439.2 287.086C1443.39 291.31 1447.31 295.811 1450.91 300.559H1425.73ZM1452.66 460.797C1449.13 465.66 1445.28 470.278 1441.15 474.62L1427.33 460.797H1452.66ZM1439.79 476.029L1424.95 461.189V489.11C1430.21 485.115 1435.17 480.741 1439.79 476.029ZM1424.95 458.419L1425.37 458.838H1454.05C1469.29 437.024 1478.23 410.483 1478.23 381.853L1478.23 381.658H1424.95V458.419ZM1348.19 381.658L1422.99 456.46V381.658H1348.19ZM1422.6 458.838L1345.81 382.049V458.838H1422.6ZM1269.05 302.518L1343.85 377.32V302.518H1269.05ZM1343.46 379.699L1266.67 302.91V379.699L1343.46 379.699ZM1266.67 300.139L1267.09 300.559H1343.85V247.277L1343.65 247.277C1315.02 247.277 1288.48 256.217 1266.67 271.457V300.139ZM1250.89 284.358L1264.71 298.18V272.852C1259.85 276.38 1255.23 280.225 1250.89 284.358ZM1264.32 300.559L1249.48 285.719C1244.77 290.335 1240.39 295.296 1236.4 300.559H1264.32ZM1209.09 379.699H1264.71V302.518H1234.94C1219.07 324.224 1209.55 350.86 1209.09 379.699ZM1452.37 302.518H1424.95V379.699H1478.21C1477.76 350.86 1468.24 324.224 1452.37 302.518ZM1422.99 490.57V460.797H1345.81V516.413C1374.65 515.961 1401.28 506.437 1422.99 490.57ZM1343.85 516.43V460.797L1266.67 460.797V492.25C1288.48 507.49 1315.02 516.43 1343.65 516.43L1343.85 516.43Z" fill="white" fill-opacity="0.4"/>
</g>
<g clip-path="url(#clip2_119_252)">
<path d="M1249.01 470.22L1230 267.381L1457 267.788L1436.9 470.22L1344.36 493.619L1249.01 470.22Z" fill="#1B73BA"/>
<path d="M1344.36 474.029V286.699L1437.84 286.971L1421.17 454.575L1344.36 474.029Z" fill="#1C88C7"/>
<path d="M1414.62 310.643H1270.82L1274.72 335.129H1342.95L1275.81 360.298L1279.7 383.969H1378.63L1375.05 417.026L1341.55 422.741L1311.17 415.939L1308.84 397.165H1280.95L1284.69 436.21L1344.51 450.766L1401.85 434.85L1409.17 358.528H1348.56L1414.62 334.586L1414.62 310.643Z" fill="white"/>
</g>
<g filter="url(#filter11_f_119_252)">
<circle cx="1481.36" cy="524.266" r="63.4685" fill="#483CC9" fill-opacity="0.6"/>
</g>
<defs>
<filter id="filter0_f_119_252" x="350.797" y="72.9342" width="349.469" height="349.468" filterUnits="userSpaceOnUse" color-interpolation-filters="sRGB">
<feFlood flood-opacity="0" result="BackgroundImageFix"/>
<feBlend mode="normal" in="SourceGraphic" in2="BackgroundImageFix" result="shape"/>
<feGaussianBlur stdDeviation="55.6329" result="effect1_foregroundBlur_119_252"/>
</filter>
<filter id="filter1_f_119_252" x="235.614" y="0.0630112" width="471.312" height="380.811" filterUnits="userSpaceOnUse" color-interpolation-filters="sRGB">
<feFlood flood-opacity="0" result="BackgroundImageFix"/>
<feBlend mode="normal" in="SourceGraphic" in2="BackgroundImageFix" result="shape"/>
<feGaussianBlur stdDeviation="63.4685" result="effect1_foregroundBlur_119_252"/>
</filter>
<filter id="filter2_d_119_252" x="0.820007" y="44.609" width="713.667" height="713.667" filterUnits="userSpaceOnUse" color-interpolation-filters="sRGB">
<feFlood flood-opacity="0" result="BackgroundImageFix"/>
<feColorMatrix in="SourceAlpha" type="matrix" values="0 0 0 0 0 0 0 0 0 0 0 0 0 0 0 0 0 0 127 0" result="hardAlpha"/>
<feOffset dy="19.589"/>
<feGaussianBlur stdDeviation="79.59"/>
<feComposite in2="hardAlpha" operator="out"/>
<feColorMatrix type="matrix" values="0 0 0 0 0.036 0 0 0 0 0.0413333 0 0 0 0 0.064 0 0 0 1 0"/>
<feBlend mode="normal" in2="BackgroundImageFix" result="effect1_dropShadow_119_252"/>
<feBlend mode="normal" in="SourceGraphic" in2="effect1_dropShadow_119_252" result="shape"/>
</filter>
<filter id="filter3_f_119_252" x="351.973" y="380.874" width="286.784" height="286.784" filterUnits="userSpaceOnUse" color-interpolation-filters="sRGB">
<feFlood flood-opacity="0" result="BackgroundImageFix"/>
<feBlend mode="normal" in="SourceGraphic" in2="BackgroundImageFix" result="shape"/>
<feGaussianBlur stdDeviation="39.9616" result="effect1_foregroundBlur_119_252"/>
</filter>
<filter id="filter4_f_119_252" x="843.797" y="72.9342" width="349.469" height="349.468" filterUnits="userSpaceOnUse" color-interpolation-filters="sRGB">
<feFlood flood-opacity="0" result="BackgroundImageFix"/>
<feBlend mode="normal" in="SourceGraphic" in2="BackgroundImageFix" result="shape"/>
<feGaussianBlur stdDeviation="55.6329" result="effect1_foregroundBlur_119_252"/>
</filter>
<filter id="filter5_f_119_252" x="728.614" y="0.0630112" width="471.312" height="380.811" filterUnits="userSpaceOnUse" color-interpolation-filters="sRGB">
<feFlood flood-opacity="0" result="BackgroundImageFix"/>
<feBlend mode="normal" in="SourceGraphic" in2="BackgroundImageFix" result="shape"/>
<feGaussianBlur stdDeviation="63.4685" result="effect1_foregroundBlur_119_252"/>
</filter>
<filter id="filter6_d_119_252" x="493.82" y="44.609" width="713.667" height="713.667" filterUnits="userSpaceOnUse" color-interpolation-filters="sRGB">
<feFlood flood-opacity="0" result="BackgroundImageFix"/>
<feColorMatrix in="SourceAlpha" type="matrix" values="0 0 0 0 0 0 0 0 0 0 0 0 0 0 0 0 0 0 127 0" result="hardAlpha"/>
<feOffset dy="19.589"/>
<feGaussianBlur stdDeviation="79.59"/>
<feComposite in2="hardAlpha" operator="out"/>
<feColorMatrix type="matrix" values="0 0 0 0 0.036 0 0 0 0 0.0413333 0 0 0 0 0.064 0 0 0 1 0"/>
<feBlend mode="normal" in2="BackgroundImageFix" result="effect1_dropShadow_119_252"/>
<feBlend mode="normal" in="SourceGraphic" in2="effect1_dropShadow_119_252" result="shape"/>
</filter>
<filter id="filter7_f_119_252" x="844.973" y="380.874" width="286.784" height="286.784" filterUnits="userSpaceOnUse" color-interpolation-filters="sRGB">
<feFlood flood-opacity="0" result="BackgroundImageFix"/>
<feBlend mode="normal" in="SourceGraphic" in2="BackgroundImageFix" result="shape"/>
<feGaussianBlur stdDeviation="39.9616" result="effect1_foregroundBlur_119_252"/>
</filter>
<filter id="filter8_f_119_252" x="1336.8" y="72.9342" width="349.469" height="349.468" filterUnits="userSpaceOnUse" color-interpolation-filters="sRGB">
<feFlood flood-opacity="0" result="BackgroundImageFix"/>
<feBlend mode="normal" in="SourceGraphic" in2="BackgroundImageFix" result="shape"/>
<feGaussianBlur stdDeviation="55.6329" result="effect1_foregroundBlur_119_252"/>
</filter>
<filter id="filter9_f_119_252" x="1221.61" y="0.0630112" width="471.312" height="380.811" filterUnits="userSpaceOnUse" color-interpolation-filters="sRGB">
<feFlood flood-opacity="0" result="BackgroundImageFix"/>
<feBlend mode="normal" in="SourceGraphic" in2="BackgroundImageFix" result="shape"/>
<feGaussianBlur stdDeviation="63.4685" result="effect1_foregroundBlur_119_252"/>
</filter>
<filter id="filter10_d_119_252" x="986.82" y="44.609" width="713.667" height="713.667" filterUnits="userSpaceOnUse" color-interpolation-filters="sRGB">
<feFlood flood-opacity="0" result="BackgroundImageFix"/>
<feColorMatrix in="SourceAlpha" type="matrix" values="0 0 0 0 0 0 0 0 0 0 0 0 0 0 0 0 0 0 127 0" result="hardAlpha"/>
<feOffset dy="19.589"/>
<feGaussianBlur stdDeviation="79.59"/>
<feComposite in2="hardAlpha" operator="out"/>
<feColorMatrix type="matrix" values="0 0 0 0 0.036 0 0 0 0 0.0413333 0 0 0 0 0.064 0 0 0 1 0"/>
<feBlend mode="normal" in2="BackgroundImageFix" result="effect1_dropShadow_119_252"/>
<feBlend mode="normal" in="SourceGraphic" in2="effect1_dropShadow_119_252" result="shape"/>
</filter>
<filter id="filter11_f_119_252" x="1337.97" y="380.874" width="286.784" height="286.784" filterUnits="userSpaceOnUse" color-interpolation-filters="sRGB">
<feFlood flood-opacity="0" result="BackgroundImageFix"/>
<feBlend mode="normal" in="SourceGraphic" in2="BackgroundImageFix" result="shape"/>
<feGaussianBlur stdDeviation="39.9616" result="effect1_foregroundBlur_119_252"/>
</filter>
<linearGradient id="paint0_linear_119_252" x1="503.592" y1="184.2" x2="274.792" y2="382.049" gradientUnits="userSpaceOnUse">
<stop stop-color="#79AEE7"/>
<stop offset="0.331593" stop-color="#4960A7"/>
<stop offset="1" stop-color="#1B2030"/>
</linearGradient>
<linearGradient id="paint1_linear_119_252" x1="507.901" y1="202.418" x2="230.325" y2="475.293" gradientUnits="userSpaceOnUse">
<stop stop-color="#EBF8FC"/>
<stop offset="0.295134" stop-color="#7FB8EF"/>
<stop offset="0.57639" stop-color="#5142F1"/>
<stop offset="1" stop-color="#1D1D29"/>
</linearGradient>
<linearGradient id="paint2_linear_119_252" x1="471.074" y1="248.844" x2="331.6" y2="448.652" gradientUnits="userSpaceOnUse">
<stop stop-color="#3B4F75"/>
<stop offset="0.529514" stop-color="#1B253E"/>
<stop offset="1" stop-color="#1A1D2C"/>
</linearGradient>
<linearGradient id="paint3_linear_119_252" x1="996.592" y1="184.2" x2="767.792" y2="382.049" gradientUnits="userSpaceOnUse">
<stop stop-color="#79AEE7"/>
<stop offset="0.331593" stop-color="#4960A7"/>
<stop offset="1" stop-color="#1B2030"/>
</linearGradient>
<linearGradient id="paint4_linear_119_252" x1="1000.9" y1="202.418" x2="723.325" y2="475.293" gradientUnits="userSpaceOnUse">
<stop stop-color="#EBF8FC"/>
<stop offset="0.295134" stop-color="#7FB8EF"/>
<stop offset="0.57639" stop-color="#5142F1"/>
<stop offset="1" stop-color="#1D1D29"/>
</linearGradient>
<linearGradient id="paint5_linear_119_252" x1="964.074" y1="248.844" x2="824.6" y2="448.652" gradientUnits="userSpaceOnUse">
<stop stop-color="#3B4F75"/>
<stop offset="0.529514" stop-color="#1B253E"/>
<stop offset="1" stop-color="#1A1D2C"/>
</linearGradient>
<linearGradient id="paint6_linear_119_252" x1="1489.59" y1="184.2" x2="1260.79" y2="382.049" gradientUnits="userSpaceOnUse">
<stop stop-color="#79AEE7"/>
<stop offset="0.331593" stop-color="#4960A7"/>
<stop offset="1" stop-color="#1B2030"/>
</linearGradient>
<linearGradient id="paint7_linear_119_252" x1="1493.9" y1="202.418" x2="1216.32" y2="475.293" gradientUnits="userSpaceOnUse">
<stop stop-color="#EBF8FC"/>
<stop offset="0.295134" stop-color="#7FB8EF"/>
<stop offset="0.57639" stop-color="#5142F1"/>
<stop offset="1" stop-color="#1D1D29"/>
</linearGradient>
<linearGradient id="paint8_linear_119_252" x1="1457.07" y1="248.844" x2="1317.6" y2="448.652" gradientUnits="userSpaceOnUse">
<stop stop-color="#3B4F75"/>
<stop offset="0.529514" stop-color="#1B253E"/>
<stop offset="1" stop-color="#1A1D2C"/>
</linearGradient>
<clipPath id="clip0_119_252">
<rect width="227" height="227" fill="white" transform="translate(244 267)"/>
</clipPath>
<clipPath id="clip1_119_252">
<rect width="227" height="227" fill="white" transform="translate(737 267)"/>
</clipPath>
<clipPath id="clip2_119_252">
<rect width="227" height="227" fill="white" transform="translate(1230 267)"/>
</clipPath>
</defs>
</svg>
