<svg width="255" height="74" viewBox="0 0 255 74" fill="none" xmlns="http://www.w3.org/2000/svg">
<rect x="91.3255" y="1.421" width="71.5491" height="71.5491" rx="22.211" fill="url(#paint0_linear_102_98)" stroke="url(#paint1_linear_102_98)" stroke-width="1.85092"/>
<rect x="96.0014" y="6.09694" width="62.27" height="62.27" rx="14.6917" fill="url(#paint2_linear_102_98)"/>
<g style="mix-blend-mode:overlay">
<path fill-rule="evenodd" clip-rule="evenodd" d="M111.769 51.8537L109.25 54.3734C108.488 53.5822 107.778 52.7405 107.127 51.8537H111.769ZM112.442 51.1812L112.348 51.2753H106.714C103.947 47.2772 102.327 42.4256 102.327 37.1956L102.327 37.1592H112.442V51.1812ZM112.442 51.9992L109.656 54.7855C110.523 55.6463 111.455 56.4433 112.442 57.169V51.9992ZM108.841 54.7825L95.1559 68.4671L95.5649 68.8761L109.247 55.1945C110.235 56.1749 111.304 57.0745 112.442 57.8825V72.7316H113.02V58.2812C117.048 60.9759 121.89 62.5473 127.1 62.5473L127.136 62.5473V72.7316H127.715V62.54C132.973 62.4148 137.834 60.6889 141.831 57.8307V72.7316H142.409V57.4046C143.402 56.6517 144.337 55.8273 145.207 54.9392L158.708 68.4397L159.117 68.0307L145.608 54.5214C146.392 53.6835 147.121 52.7923 147.787 51.8537H162.636V51.2753H148.186C150.88 47.2478 152.452 42.4052 152.452 37.1956L152.452 37.1592H162.636V36.5808H152.444C152.319 31.3228 150.593 26.4612 147.735 22.4646H162.636V21.8862H147.309C146.629 20.9896 145.89 20.1397 145.099 19.342L158.708 5.73321L158.299 5.32421L144.687 18.936C143.967 18.2427 143.207 17.5915 142.409 16.9865V1.65947H141.831L141.831 16.5604C137.834 13.7022 132.973 11.9763 127.715 11.8511V1.65947H127.136L127.136 11.8438L127.1 11.8438C121.89 11.8438 117.048 13.4152 113.02 16.1099L113.02 1.65947H112.442L112.442 16.5086C111.503 17.1748 110.612 17.9033 109.774 18.688L95.9739 4.88775L95.5649 5.29675L109.356 19.0882C108.468 19.9586 107.644 20.8938 106.891 21.8862H91.5639L91.5639 22.4646H106.465C103.607 26.4612 101.881 31.3228 101.756 36.5808H91.5639L91.5639 37.1592H101.748L101.748 37.1956C101.748 42.4052 103.32 47.2478 106.014 51.2753H91.5639L91.5639 51.8537H106.413C107.149 52.8904 107.961 53.8694 108.841 54.7825ZM144.278 19.3451C143.683 18.7723 143.059 18.229 142.409 17.7175V21.2137L144.278 19.3451ZM141.831 21.7921L141.737 21.8862H127.715V12.4297C132.996 12.5583 137.867 14.3395 141.831 17.2758V21.7921ZM141.158 22.4646L127.715 35.9082V22.4646H141.158ZM127.86 36.5808L141.831 22.6101V36.5808H127.86ZM127.136 37.3046V51.2753H113.166L127.136 37.3046ZM126.464 37.1592L113.02 50.6028V37.1592L126.464 37.1592ZM142.555 21.8862L144.69 19.751C145.359 20.4257 145.99 21.1386 146.578 21.8862H142.555ZM147.073 51.8537C146.493 52.6435 145.867 53.3977 145.198 54.1122L142.94 51.8537H147.073ZM144.798 54.5301L142.409 52.1411V56.6736C143.251 56.0108 144.049 55.2947 144.798 54.5301ZM141.831 37.1592V50.7447L128.245 37.1592H141.831ZM141.544 51.2753L127.715 37.4466V51.2753H141.544ZM127.136 22.4646V36.0502L113.551 22.4646L127.136 22.4646ZM126.849 36.5808L113.02 22.7521V36.5808H126.849ZM112.442 17.2221V21.3557L110.183 19.0972C110.898 18.4291 111.652 17.8027 112.442 17.2221ZM112.154 21.8862L109.765 19.4973C109.001 20.2461 108.285 21.0442 107.622 21.8862H112.154ZM102.334 36.5808H112.442V22.4646H107.18C104.244 26.4286 102.463 31.2998 102.334 36.5808ZM113.02 16.8095V21.8862L127.136 21.8862V12.4223L127.1 12.4222C121.87 12.4222 117.018 14.0429 113.02 16.8095ZM147.02 22.4646H142.409V36.5808H151.866C151.737 31.2998 149.956 26.4286 147.02 22.4646ZM151.873 37.1592H142.409V51.2753H147.486C150.253 47.2772 151.873 42.4256 151.873 37.1956L151.873 37.1592ZM141.831 57.1153V51.8537H127.715V61.9614C132.996 61.8328 137.867 60.0516 141.831 57.1153ZM127.136 61.9688V51.8537L113.02 51.8537V57.5816C117.018 60.3482 121.87 61.9689 127.1 61.9689L127.136 61.9688Z" fill="white" fill-opacity="0.4"/>
</g>
<g opacity="0.8" clip-path="url(#clip0_102_98)">
<path d="M109.551 53.6798L106.018 15.9753L148.213 16.0511L144.477 53.6798L127.275 58.0293L109.551 53.6798Z" fill="#E34F26"/>
<path d="M127.275 54.3879V19.5662L144.651 19.6167L141.552 50.7715L127.275 54.3879Z" fill="#EF652A"/>
<path d="M139.872 28.2654L140.364 23.6628H113.634L115.111 37.7737H133.559L132.835 43.7921L126.927 45.1827L120.933 43.6655L120.614 40.0747H115.314L116.038 47.4082L126.927 50.0634L137.903 47.4082L139.38 33.0953H120.006L119.456 28.2654H139.872Z" fill="white"/>
</g>
<rect x="181.725" y="0.925459" width="71.5491" height="71.5491" rx="22.211" fill="url(#paint3_linear_102_98)" stroke="url(#paint4_linear_102_98)" stroke-width="1.85092"/>
<rect x="186.401" y="5.60139" width="62.27" height="62.27" rx="14.6917" fill="url(#paint5_linear_102_98)"/>
<g style="mix-blend-mode:overlay">
<path fill-rule="evenodd" clip-rule="evenodd" d="M202.169 51.3582L199.65 53.8779C198.888 53.0867 198.178 52.2449 197.527 51.3582H202.169ZM202.842 50.6857L202.748 50.7798H197.114C194.347 46.7816 192.727 41.9301 192.727 36.7L192.727 36.6636H202.842V50.6857ZM202.842 51.5037L200.056 54.29C200.923 55.1508 201.855 55.9478 202.842 56.6734V51.5037ZM199.241 54.287L185.556 67.9716L185.965 68.3806L199.647 54.699C200.635 55.6794 201.704 56.579 202.842 57.387V72.2361H203.42V57.7857C207.448 60.4803 212.29 62.0517 217.5 62.0517L217.536 62.0517V72.2361H218.115V62.0444C223.373 61.9193 228.234 60.1933 232.231 57.3352V72.2361H232.809V56.9091C233.802 56.1561 234.737 55.3317 235.607 54.4436L249.108 67.9441L249.517 67.5351L236.008 54.0259C236.792 53.1879 237.521 52.2967 238.187 51.3582H253.036V50.7798H238.586C241.28 46.7523 242.852 41.9097 242.852 36.7L242.852 36.6636H253.036V36.0852H242.844C242.719 30.8273 240.993 25.9657 238.135 21.9691H253.036V21.3907H237.709C237.029 20.4941 236.29 19.6441 235.499 18.8465L249.108 5.23766L248.699 4.82866L235.087 18.4405C234.367 17.7472 233.607 17.096 232.809 16.4909V1.16393H232.231L232.231 16.0648C228.234 13.2067 223.373 11.4807 218.115 11.3556V1.16393H217.536L217.536 11.3483L217.5 11.3483C212.29 11.3483 207.448 12.9197 203.42 15.6143L203.42 1.16393H202.842L202.842 16.013C201.903 16.6792 201.012 17.4077 200.174 18.1924L186.374 4.3922L185.965 4.8012L199.756 18.5927C198.868 19.4631 198.044 20.3983 197.291 21.3907H181.964L181.964 21.9691H196.865C194.007 25.9657 192.281 30.8273 192.156 36.0852H181.964L181.964 36.6636H192.148L192.148 36.7C192.148 41.9097 193.72 46.7523 196.414 50.7798H181.964L181.964 51.3582H196.813C197.549 52.3949 198.361 53.3738 199.241 54.287ZM234.678 18.8496C234.083 18.2768 233.459 17.7335 232.809 17.222V20.7182L234.678 18.8496ZM232.231 21.2966L232.137 21.3907H218.115V11.9342C223.396 12.0628 228.267 13.844 232.231 16.7803V21.2966ZM231.558 21.9691L218.115 35.4127V21.9691H231.558ZM218.26 36.0852L232.231 22.1146V36.0852H218.26ZM217.536 36.8091V50.7798H203.566L217.536 36.8091ZM216.864 36.6636L203.42 50.1073V36.6636L216.864 36.6636ZM232.955 21.3907L235.09 19.2555C235.759 19.9301 236.39 20.6431 236.978 21.3907H232.955ZM237.473 51.3582C236.893 52.148 236.267 52.9021 235.598 53.6166L233.34 51.3582H237.473ZM235.198 54.0346L232.809 51.6456V56.1781C233.651 55.5153 234.449 54.7991 235.198 54.0346ZM232.231 36.6636V50.2492L218.645 36.6636H232.231ZM231.944 50.7798L218.115 36.9511V50.7798H231.944ZM217.536 21.9691V35.5547L203.951 21.9691L217.536 21.9691ZM217.249 36.0852L203.42 22.2565V36.0852H217.249ZM202.842 16.7266V20.8601L200.583 18.6017C201.298 17.9335 202.052 17.3072 202.842 16.7266ZM202.554 21.3907L200.165 19.0017C199.401 19.7506 198.685 20.5486 198.022 21.3907H202.554ZM192.734 36.0852H202.842V21.9691H197.58C194.644 25.9331 192.863 30.8043 192.734 36.0852ZM203.42 16.314V21.3907L217.536 21.3907V11.9267L217.5 11.9267C212.27 11.9267 207.418 13.5474 203.42 16.314ZM237.42 21.9691H232.809V36.0852H242.266C242.137 30.8043 240.356 25.9331 237.42 21.9691ZM242.273 36.6636H232.809V50.7798H237.886C240.653 46.7816 242.273 41.9301 242.273 36.7L242.273 36.6636ZM232.231 56.6198V51.3582H218.115V61.4659C223.396 61.3372 228.267 59.556 232.231 56.6198ZM217.536 61.4733V51.3582L203.42 51.3582V57.086C207.418 59.8526 212.27 61.4733 217.5 61.4733L217.536 61.4733Z" fill="white" fill-opacity="0.4"/>
</g>
<g opacity="0.8" clip-path="url(#clip1_102_98)">
<path d="M200.054 53.4956L196.521 15.7917L238.716 15.8675L234.98 53.4956L217.778 57.8451L200.054 53.4956Z" fill="#1B73BA"/>
<path d="M217.778 54.2037V19.3826L235.154 19.4331L232.055 50.5876L217.778 54.2037Z" fill="#1C88C7"/>
<path d="M230.839 23.8333H204.108L204.833 28.3848H217.517L205.035 33.0632L205.759 37.4632H224.149L223.483 43.6079L217.256 44.6701L211.609 43.4058L211.175 39.916H205.991L206.686 47.1738L217.807 49.8795L228.464 46.9209L229.825 32.7343H218.559L230.838 28.2838L230.839 23.8333Z" fill="white"/>
</g>
<rect x="0.925459" y="0.925459" width="71.5491" height="71.5491" rx="22.211" fill="url(#paint6_linear_102_98)" stroke="url(#paint7_linear_102_98)" stroke-width="1.85092"/>
<rect x="5.60138" y="5.60139" width="62.27" height="62.27" rx="14.6917" fill="url(#paint8_linear_102_98)"/>
<g style="mix-blend-mode:overlay">
<path fill-rule="evenodd" clip-rule="evenodd" d="M21.3693 51.3582L18.8496 53.8779C18.088 53.0867 17.3785 52.2449 16.7266 51.3582H21.3693ZM22.0419 50.6856L21.9477 50.7798H16.314C13.5474 46.7816 11.9267 41.9301 11.9267 36.7L11.9267 36.6636H22.0419V50.6856ZM22.0419 51.5036L19.2555 54.29C20.1235 55.1508 21.0548 55.9478 22.0419 56.6734V51.5036ZM18.4405 54.287L4.75593 67.9716L5.16493 68.3806L18.8465 54.699C19.8349 55.6794 20.9036 56.579 22.0419 57.387V72.2361H22.6203V57.7857C26.6478 60.4804 31.4904 62.0517 36.7 62.0517L36.7364 62.0517V72.2361H37.3148V62.0444C42.5728 61.9193 47.4344 60.1933 51.4309 57.3352V72.2361H52.0093V56.9091C53.0017 56.1561 53.9369 55.3318 54.8073 54.4436L68.3078 67.9441L68.7168 67.5351L55.2076 54.0259C55.9923 53.1879 56.7208 52.2967 57.387 51.3582H72.2361V50.7798H57.7857C60.4804 46.7523 62.0518 41.9097 62.0518 36.7L62.0517 36.6636H72.2361V36.0852H62.0444C61.9193 30.8273 60.1933 25.9657 57.3352 21.9691H72.2361V21.3907H56.9091C56.2288 20.4941 55.4902 19.6441 54.699 18.8465L68.3078 5.23766L67.8988 4.82866L54.287 18.4405C53.5673 17.7472 52.8068 17.096 52.0093 16.4909V1.16393H51.4309L51.4309 16.0648C47.4344 13.2067 42.5728 11.4807 37.3148 11.3556V1.16393H36.7364L36.7364 11.3483L36.7 11.3483C31.4904 11.3483 26.6478 12.9197 22.6203 15.6143L22.6203 1.16393H22.0419L22.0419 16.013C21.1033 16.6792 20.2121 17.4077 19.3742 18.1924L5.57393 4.3922L5.16493 4.8012L18.9564 18.5927C18.0683 19.4631 17.2439 20.3983 16.491 21.3907H1.16391L1.16391 21.9691H16.0649C13.2067 25.9657 11.4807 30.8273 11.3556 36.0852H1.16391L1.16391 36.6636H11.3483L11.3483 36.7C11.3483 41.9097 12.9197 46.7523 15.6143 50.7798H1.16391L1.16391 51.3582H16.013C16.7489 52.3949 17.5608 53.3738 18.4405 54.287ZM53.8779 18.8496C53.2829 18.2768 52.6592 17.7335 52.0093 17.222V20.7182L53.8779 18.8496ZM51.4309 21.2966L51.3368 21.3907H37.3148V11.9342C42.5957 12.0628 47.4669 13.844 51.4309 16.7803V21.2966ZM50.7584 21.9691L37.3148 35.4127V21.9691H50.7584ZM37.4603 36.0852L51.4309 22.1146V36.0852H37.4603ZM36.7364 36.8091V50.7798H22.7657L36.7364 36.8091ZM36.0639 36.6636L22.6203 50.1072V36.6636L36.0639 36.6636ZM52.1548 21.3907L54.29 19.2555C54.9591 19.9301 55.5896 20.6431 56.1781 21.3907H52.1548ZM56.6734 51.3582C56.0928 52.148 55.4665 52.9021 54.7984 53.6166L52.5399 51.3582H56.6734ZM54.3983 54.0346L52.0093 51.6456V56.1781C52.8514 55.5153 53.6494 54.7991 54.3983 54.0346ZM51.4309 36.6636V50.2492L37.8454 36.6636H51.4309ZM51.1435 50.7798L37.3148 36.9511V50.7798H51.1435ZM36.7364 21.9691V35.5547L23.1508 21.9691L36.7364 21.9691ZM36.449 36.0852L22.6203 22.2565V36.0852H36.449ZM22.0419 16.7266V20.8601L19.7834 18.6017C20.4979 17.9335 21.252 17.3072 22.0419 16.7266ZM21.7544 21.3907L19.3654 19.0017C18.6009 19.7506 17.8847 20.5486 17.222 21.3907H21.7544ZM11.9342 36.0852H22.0419V21.9691H16.7803C13.844 25.9331 12.0628 30.8043 11.9342 36.0852ZM22.6203 16.314V21.3907L36.7364 21.3907V11.9267L36.7 11.9267C31.47 11.9267 26.6184 13.5474 22.6203 16.314ZM56.6198 21.9691H52.0093V36.0852H61.4659C61.3372 30.8043 59.5561 25.9331 56.6198 21.9691ZM61.4733 36.6636H52.0093V50.7798H57.086C59.8526 46.7816 61.4733 41.9301 61.4733 36.7L61.4733 36.6636ZM51.4309 56.6198V51.3582H37.3148V61.4659C42.5957 61.3372 47.4669 59.556 51.4309 56.6198ZM36.7364 61.4733V51.3582L22.6203 51.3582V57.086C26.6184 59.8526 31.47 61.4733 36.7 61.4733L36.7364 61.4733Z" fill="white" fill-opacity="0.4"/>
</g>
<g opacity="0.8" clip-path="url(#clip2_102_98)">
<path d="M19.254 53.4959L15.7209 15.7914L57.9158 15.8672L54.1799 53.4959L36.9776 57.8454L19.254 53.4959Z" fill="#E9CA32"/>
<path d="M36.9776 54.204V19.3823L54.3538 19.4328L51.2552 50.5876L36.9776 54.204Z" fill="#FFDE25"/>
<path d="M35.117 23.5169H30.5232V46.6933L26.9502 46.0991V42.9792L22.6967 42.3849V49.3675L35.117 52.1903V23.5169ZM38.563 23.5169H51.2803L50.4296 27.959H43.4178V35.2486H50.4296L49.5789 49.9618L38.563 52.1903V47.5847L46.006 45.3562L46.4358 39.265L38.563 40.2604V23.5169Z" fill="white"/>
</g>
<defs>
<linearGradient id="paint0_linear_102_98" x1="154.198" y1="0.495544" x2="111.714" y2="37.2319" gradientUnits="userSpaceOnUse">
<stop stop-color="#79AEE7"/>
<stop offset="0.331593" stop-color="#4960A7"/>
<stop offset="1" stop-color="#1B2030"/>
</linearGradient>
<linearGradient id="paint1_linear_102_98" x1="154.998" y1="3.8782" x2="103.458" y2="54.5453" gradientUnits="userSpaceOnUse">
<stop stop-color="#EBF8FC"/>
<stop offset="0.295134" stop-color="#7FB8EF"/>
<stop offset="0.57639" stop-color="#5142F1"/>
<stop offset="1" stop-color="#1D1D29"/>
</linearGradient>
<linearGradient id="paint2_linear_102_98" x1="148.16" y1="12.4985" x2="122.262" y2="49.5986" gradientUnits="userSpaceOnUse">
<stop stop-color="#3B4F75"/>
<stop offset="0.529514" stop-color="#1B253E"/>
<stop offset="1" stop-color="#1A1D2C"/>
</linearGradient>
<linearGradient id="paint3_linear_102_98" x1="244.598" y1="-3.2707e-07" x2="202.114" y2="36.7364" gradientUnits="userSpaceOnUse">
<stop stop-color="#79AEE7"/>
<stop offset="0.331593" stop-color="#4960A7"/>
<stop offset="1" stop-color="#1B2030"/>
</linearGradient>
<linearGradient id="paint4_linear_102_98" x1="245.398" y1="3.38266" x2="193.858" y2="54.0498" gradientUnits="userSpaceOnUse">
<stop stop-color="#EBF8FC"/>
<stop offset="0.295134" stop-color="#7FB8EF"/>
<stop offset="0.57639" stop-color="#5142F1"/>
<stop offset="1" stop-color="#1D1D29"/>
</linearGradient>
<linearGradient id="paint5_linear_102_98" x1="238.56" y1="12.003" x2="212.662" y2="49.1031" gradientUnits="userSpaceOnUse">
<stop stop-color="#3B4F75"/>
<stop offset="0.529514" stop-color="#1B253E"/>
<stop offset="1" stop-color="#1A1D2C"/>
</linearGradient>
<linearGradient id="paint6_linear_102_98" x1="63.7976" y1="-3.2707e-07" x2="21.3144" y2="36.7364" gradientUnits="userSpaceOnUse">
<stop stop-color="#79AEE7"/>
<stop offset="0.331593" stop-color="#4960A7"/>
<stop offset="1" stop-color="#1B2030"/>
</linearGradient>
<linearGradient id="paint7_linear_102_98" x1="64.5978" y1="3.38266" x2="13.0578" y2="54.0498" gradientUnits="userSpaceOnUse">
<stop stop-color="#EBF8FC"/>
<stop offset="0.295134" stop-color="#7FB8EF"/>
<stop offset="0.57639" stop-color="#5142F1"/>
<stop offset="1" stop-color="#1D1D29"/>
</linearGradient>
<linearGradient id="paint8_linear_102_98" x1="57.7598" y1="12.003" x2="31.8624" y2="49.1031" gradientUnits="userSpaceOnUse">
<stop stop-color="#3B4F75"/>
<stop offset="0.529514" stop-color="#1B253E"/>
<stop offset="1" stop-color="#1A1D2C"/>
</linearGradient>
<clipPath id="clip0_102_98">
<rect width="42.1949" height="42.1949" fill="white" transform="translate(106.018 15.9048)"/>
</clipPath>
<clipPath id="clip1_102_98">
<rect width="42.1949" height="42.1949" fill="white" transform="translate(196.521 15.7209)"/>
</clipPath>
<clipPath id="clip2_102_98">
<rect width="42.1949" height="42.1949" fill="white" transform="translate(15.7209 15.7209)"/>
</clipPath>
</defs>
</svg>
